<?xml version="1.0" standalone="no"?>
<!DOCTYPE svg PUBLIC "-//W3C//DTD SVG 20010904//EN"
 "http://www.w3.org/TR/2001/REC-SVG-20010904/DTD/svg10.dtd">
<svg version="1.0" xmlns="http://www.w3.org/2000/svg"
 width="16.000000pt" height="16.000000pt" viewBox="0 0 16.000000 16.000000"
 preserveAspectRatio="xMidYMid meet">

<g transform="translate(0.000000,16.000000) scale(0.100000,-0.100000)"
fill="#000000" stroke="none">
<path d="M33 131 c-29 -24 -33 -33 -33 -80 l0 -52 78 3 77 3 0 54 c0 46 -4 56
-25 72 -43 30 -62 30 -97 0z m85 -46 c3 -27 2 -28 -29 -21 -19 3 -38 11 -44
18 -7 8 -5 9 7 5 10 -3 20 -2 23 3 4 6 -1 10 -9 10 -19 0 -21 16 -3 23 25 8
52 -10 55 -38z m-12 -44 c-3 -5 -15 -7 -26 -4 -28 7 -25 13 6 13 14 0 23 -4
20 -9z"/>
</g>
</svg>
