<svg xmlns="http://www.w3.org/2000/svg" width="1365" height="768" viewBox="0 0 1365 768">
<g>
<path d="M 718.34,27.32 L 720.04,27.33 L 723.28,27.37 L 726.46,27.43 L 732.27,27.68 L 735.11,27.83 L 740.46,28.28 L 743.11,28.53 L 748.33,29.19 L 750.95,29.55 L 756.35,30.44 L 765.00,32.05 L 768.01,32.65 L 774.06,34.07 L 777.08,34.81 L 783.12,36.52 L 786.13,37.40 L 792.10,39.36 L 795.07,40.37 L 800.90,42.57 L 803.79,43.70 L 809.43,46.11 L 812.22,47.33 L 817.60,49.93 L 820.26,51.25 L 825.32,54.01 L 832.50,58.31 L 835.90,60.48 L 842.30,65.02 L 845.43,67.33 L 851.30,72.16 L 854.18,74.61 L 859.57,79.77 L 862.21,82.39 L 867.14,87.90 L 869.56,90.71 L 874.07,96.62 L 876.27,99.63 L 880.39,105.97 L 882.40,109.20 L 886.16,116.02 L 891.41,126.80 L 892.18,128.51 L 893.55,131.46 L 894.21,132.87 L 895.41,135.30 L 895.99,136.46 L 897.09,138.45 L 897.63,139.41 L 898.69,141.07 L 899.75,142.67 L 902.03,145.26 L 906.15,148.99 L 908.36,150.79 L 912.53,154.50 L 914.57,156.38 L 918.40,160.27 L 920.27,162.24 L 923.77,166.31 L 925.47,168.37 L 928.64,172.63 L 930.19,174.79 L 933.04,179.25 L 934.43,181.50 L 936.97,186.17 L 938.20,188.53 L 940.43,193.41 L 943.44,200.98 L 944.05,202.68 L 945.07,205.75 L 945.56,207.26 L 946.36,210.12 L 946.74,211.54 L 947.34,214.40 L 947.61,215.86 L 948.04,218.95 L 948.24,220.54 L 948.52,224.08 L 948.65,225.92 L 948.81,230.13 L 948.88,232.33 L 948.95,237.43 L 948.96,238.77 L 948.98,241.65 L 948.98,246.32 L 948.98,248.88 L 948.96,253.31 L 948.95,255.42 L 948.91,259.04 L 948.88,260.75 L 948.80,263.69 L 948.75,265.09 L 948.62,267.49 L 948.55,268.64 L 948.37,270.63 L 948.28,271.59 L 948.03,273.32 L 947.04,278.14 L 946.26,281.24 L 944.26,287.35 L 943.19,290.37 L 940.66,296.22 L 939.34,299.09 L 936.34,304.55 L 931.38,312.14 L 930.08,313.93 L 928.15,317.20 L 927.28,318.83 L 926.11,322.18 L 925.61,323.92 L 925.06,327.86 L 924.95,328.91 L 924.83,331.20 L 924.77,335.00 L 924.77,336.64 L 924.96,340.14 L 925.08,341.94 L 925.51,345.82 L 925.76,347.83 L 926.46,352.22 L 927.83,359.50 L 928.37,362.20 L 929.32,367.30 L 929.77,369.81 L 930.53,374.66 L 931.24,379.46 L 932.15,388.83 L 932.34,391.20 L 932.60,396.04 L 932.71,398.49 L 932.83,403.59 L 932.87,406.19 L 932.85,411.68 L 932.68,420.50 L 932.56,424.96 L 932.08,434.38 L 931.80,439.09 L 931.09,448.25 L 930.90,450.47 L 930.49,454.70 L 930.29,456.77 L 929.85,460.59 L 929.63,462.44 L 929.18,465.72 L 928.49,469.91 L 928.42,470.27 L 928.22,471.59 L 928.11,472.33 L 927.85,474.24 L 927.01,481.00 L 926.98,481.29 L 926.87,482.12 L 926.81,482.57 L 926.65,483.70 L 926.56,484.30 L 926.36,485.71 L 926.25,486.45 L 926.00,488.13 L 925.74,489.87 L 925.10,494.06 L 924.76,496.26 L 923.98,501.26 L 923.57,503.85 L 922.68,509.49 L 922.22,512.38 L 921.24,518.52 L 920.74,521.64 L 919.70,528.12 L 918.09,538.04 L 916.99,544.71 L 914.91,557.71 L 914.41,560.88 L 913.45,566.92 L 912.99,569.88 L 912.13,575.39 L 911.72,578.07 L 910.99,582.88 L 910.64,585.19 L 910.05,589.15 L 909.92,590.08 L 909.68,591.75 L 909.56,592.55 L 909.37,593.95 L 909.27,594.61 L 909.13,595.72 L 908.96,597.04 L 908.57,600.48 L 907.71,606.98 L 907.27,610.16 L 906.29,616.15 L 905.79,619.09 L 904.70,624.60 L 904.14,627.30 L 902.93,632.35 L 902.31,634.81 L 900.98,639.42 L 900.30,641.67 L 898.83,645.84 L 898.08,647.88 L 896.48,651.65 L 893.93,656.87 L 893.38,657.89 L 892.43,659.81 L 891.99,660.74 L 891.33,662.33 L 891.03,663.07 L 890.72,664.16 L 890.71,665.02 L 890.82,665.11 L 891.71,665.38 L 892.25,665.53 L 893.85,665.86 L 894.49,665.99 L 882.96,664.33 L 880.91,667.65 L 879.42,669.73 L 878.18,671.19 L 877.47,671.94 L 874.38,674.97 L 872.63,676.41 L 869.03,679.20 L 867.24,680.35 L 865.46,681.44 L 864.61,681.90 L 862.94,682.74 L 862.17,683.05 L 858.21,684.32 L 856.66,684.63 L 855.69,684.75 L 853.61,684.99 L 852.28,685.09 L 849.41,685.28 L 847.60,685.37 L 845.71,685.45 L 844.66,685.49 L 842.47,685.56 L 841.25,685.60 L 838.73,685.68 L 837.33,685.72 L 834.44,685.79 L 832.85,685.83 L 829.56,685.91 L 827.75,685.95 L 824.03,686.04 L 822.00,686.08 L 814.74,686.23 L 810.10,686.30 L 807.90,686.32 L 803.60,686.36 L 801.61,686.37 L 797.73,686.39 L 795.98,686.38 L 792.62,686.36 L 791.16,686.34 L 788.40,686.29 L 787.27,686.26 L 785.19,686.18 L 784.43,686.13 L 783.12,686.02 L 782.78,685.96 L 778.11,684.69 L 775.04,683.48 L 773.54,682.71 L 770.57,681.05 L 769.13,680.06 L 766.28,677.98 L 764.92,676.80 L 762.26,674.35 L 761.00,672.99 L 758.55,670.18 L 757.41,668.67 L 755.22,665.55 L 754.23,663.89 L 752.33,660.51 L 751.50,658.72 L 749.91,655.35 L 748.97,653.53 L 748.51,652.82 L 747.56,651.50 L 747.02,651.01 L 745.87,650.12 L 745.16,649.81 L 743.63,649.25 L 742.66,649.08 L 740.56,648.78 L 739.23,648.71 L 736.38,648.59 L 734.84,648.57 L 735.12,648.57 L 736.86,648.57 L 739.74,648.55 L 740.40,648.55 L 741.51,648.54 L 742.04,648.53 L 742.86,648.52 L 743.22,648.51 L 743.70,648.49 L 743.90,648.48 L 744.00,648.46 L 744.00,648.44 L 743.85,647.97 L 743.75,647.67 L 743.44,646.72 L 743.26,646.20 L 742.83,644.92 L 742.08,642.74 L 741.32,640.54 L 740.01,635.64 L 739.38,633.11 L 738.32,627.54 L 737.82,624.67 L 737.01,618.39 L 736.07,608.14 L 735.97,606.67 L 735.78,604.18 L 735.68,603.00 L 735.50,601.02 L 735.41,600.09 L 735.22,598.55 L 735.13,597.83 L 734.91,596.65 L 734.69,595.54 L 734.11,594.08 L 732.89,592.39 L 732.44,591.90 L 731.55,591.20 L 731.10,590.88 L 730.05,590.47 L 729.49,590.29 L 728.09,590.10 L 725.36,590.00 L 724.25,590.00 L 722.61,590.09 L 721.87,590.15 L 720.81,590.42 L 720.34,590.58 L 719.65,591.10 L 718.80,592.25 L 718.69,592.45 L 718.48,593.16 L 718.38,593.58 L 718.19,594.75 L 718.09,595.39 L 717.92,597.03 L 717.83,597.92 L 717.68,600.05 L 717.60,601.18 L 717.45,603.82 L 717.38,605.21 L 717.25,608.39 L 717.18,610.04 L 717.06,613.77 L 716.89,620.00 L 716.80,623.51 L 716.59,630.02 L 716.54,631.58 L 716.43,634.49 L 716.37,635.90 L 716.25,638.45 L 716.20,639.67 L 716.08,641.79 L 716.02,642.79 L 715.91,644.41 L 715.86,645.14 L 715.76,646.18 L 715.62,647.00 L 715.48,647.32 L 715.80,647.78 L 715.94,647.88 L 716.47,648.05 L 716.77,648.12 L 717.66,648.24 L 718.15,648.30 L 719.46,648.38 L 720.18,648.42 L 721.97,648.48 L 722.94,648.50 L 725.28,648.53 L 726.33,648.54 L 724.94,648.54 L 722.92,648.56 L 722.06,648.59 L 720.43,648.65 L 719.73,648.70 L 718.42,648.81 L 717.85,648.89 L 715.80,649.25 L 714.94,649.55 L 713.28,650.22 L 712.37,650.71 L 709.64,652.32 L 708.45,653.34 L 708.06,654.00 L 707.40,655.44 L 707.16,656.50 L 706.93,657.63 L 706.82,658.31 L 706.60,659.76 L 706.48,660.62 L 705.37,666.97 L 704.43,670.87 L 703.85,672.67 L 702.61,676.17 L 701.86,677.81 L 700.28,680.99 L 699.35,682.49 L 697.38,685.43 L 696.24,686.83 L 693.84,689.59 L 692.47,690.92 L 689.60,693.57 L 687.97,694.87 L 684.59,697.48 L 682.69,698.79 L 672.88,704.87 L 666.17,708.35 L 662.73,709.81 L 655.80,712.53 L 652.25,713.61 L 645.09,715.58 L 641.43,716.27 L 634.05,717.48 L 630.28,717.80 L 622.68,718.24 L 618.80,718.18 L 610.98,717.87 L 606.98,717.43 L 598.94,716.36 L 594.83,715.53 L 587.80,714.02 L 583.33,712.94 L 581.21,712.37 L 577.04,711.20 L 575.07,710.59 L 571.19,709.33 L 569.36,708.66 L 565.76,707.31 L 564.07,706.59 L 560.76,705.14 L 559.21,704.37 L 556.17,702.81 L 554.76,701.99 L 551.99,700.33 L 550.71,699.45 L 548.21,697.68 L 547.06,696.75 L 544.83,694.87 L 543.81,693.88 L 541.83,691.88 L 540.94,690.83 L 539.21,688.71 L 538.44,687.61 L 536.97,685.36 L 536.32,684.20 L 535.09,681.83 L 534.56,680.60 L 533.57,678.10 L 533.16,676.80 L 532.40,674.17 L 532.11,672.81 L 530.88,667.12 L 525.33,665.87 L 521.90,665.38 L 522.71,665.40 L 523.49,665.49 L 524.77,665.67 L 525.36,665.74 L 526.26,665.75 L 526.67,665.71 L 527.25,665.37 L 527.50,665.13 L 527.78,664.24 L 527.89,663.71 L 527.92,662.11 L 527.90,661.19 L 527.71,658.68 L 527.65,657.99 L 527.50,656.40 L 527.42,655.57 L 527.22,653.70 L 527.12,652.72 L 526.89,650.53 L 526.50,646.88 L 526.40,645.89 L 526.17,643.60 L 526.06,642.41 L 525.81,639.79 L 525.56,637.10 L 525.04,631.11 L 524.79,628.07 L 524.29,621.94 L 523.64,613.39 L 523.50,611.34 L 523.23,607.84 L 523.10,606.17 L 522.86,603.35 L 522.74,602.02 L 522.50,599.79 L 522.38,598.73 L 522.13,596.98 L 522.00,596.16 L 521.72,594.78 L 521.58,594.14 L 521.25,593.04 L 520.05,590.30 L 519.56,589.43 L 518.63,587.98 L 518.16,587.30 L 517.15,586.18 L 516.62,585.66 L 515.40,584.83 L 514.76,584.45 L 513.19,583.86 L 512.35,583.59 L 510.30,583.20 L 509.20,583.03 L 506.53,582.80 L 505.10,582.70 L 501.67,582.59 L 495.53,582.49 L 493.84,582.48 L 490.90,582.44 L 489.50,582.42 L 487.08,582.35 L 485.92,582.31 L 483.91,582.20 L 482.94,582.15 L 481.25,581.99 L 479.62,581.83 L 476.93,581.32 L 473.00,580.21 L 470.83,579.49 L 466.59,577.68 L 464.49,576.72 L 460.43,574.45 L 458.42,573.26 L 454.57,570.55 L 452.66,569.14 L 449.04,566.02 L 447.25,564.41 L 443.89,560.91 L 442.24,559.11 L 439.16,555.25 L 437.66,553.27 L 434.90,549.07 L 431.15,542.43 L 430.40,540.96 L 429.01,537.86 L 428.34,536.28 L 427.08,532.91 L 426.47,531.17 L 425.32,527.42 L 424.76,525.48 L 423.69,521.26 L 423.16,519.07 L 422.16,514.28 L 421.66,511.80 L 420.69,506.34 L 420.20,503.51 L 419.25,497.29 L 417.80,487.00 L 417.70,486.20 L 417.50,483.83 L 417.41,482.52 L 417.24,479.24 L 417.16,477.49 L 417.02,473.41 L 416.95,471.28 L 416.84,466.52 L 416.79,464.07 L 416.70,458.74 L 416.66,456.02 L 416.60,450.24 L 416.57,447.31 L 416.54,441.20 L 416.53,438.11 L 416.52,431.79 L 416.52,425.43 L 416.60,412.54 L 416.65,406.15 L 416.84,393.91 L 416.89,390.93 L 417.02,385.25 L 417.08,382.46 L 417.24,377.26 L 417.32,374.73 L 417.50,370.12 L 417.80,364.00 L 417.89,362.45 L 418.08,358.76 L 418.17,356.82 L 418.37,352.46 L 418.47,350.22 L 418.67,345.36 L 418.77,342.88 L 418.97,337.68 L 419.16,332.42 L 419.52,321.56 L 419.60,318.87 L 419.75,313.59 L 419.95,306.00 L 420.01,303.53 L 420.13,298.98 L 420.19,296.77 L 420.31,292.72 L 420.37,290.75 L 420.50,287.14 L 420.57,285.39 L 420.71,282.18 L 420.79,280.63 L 420.96,277.79 L 421.05,276.41 L 421.25,273.88 L 421.45,271.43 L 421.98,267.28 L 422.27,265.31 L 423.00,261.86 L 423.40,260.19 L 424.38,257.09 L 424.90,255.56 L 426.18,252.46 L 428.50,247.43 L 429.25,245.87 L 431.07,242.82 L 432.03,241.31 L 434.25,238.38 L 435.40,236.93 L 437.96,234.15 L 439.28,232.78 L 442.14,230.20 L 443.60,228.94 L 446.71,226.60 L 448.29,225.46 L 451.60,223.40 L 453.27,222.41 L 456.74,220.67 L 462.05,218.47 L 463.21,218.05 L 466.07,217.19 L 467.57,216.75 L 470.96,215.87 L 472.71,215.43 L 476.47,214.56 L 478.38,214.13 L 482.32,213.32 L 486.27,212.53 L 493.97,211.27 L 495.81,210.99 L 499.23,210.55 L 503.76,210.12 L 504.88,210.05 L 506.84,209.90 L 507.78,209.82 L 509.42,209.67 L 510.20,209.59 L 511.55,209.41 L 512.19,209.32 L 513.30,209.12 L 514.35,208.91 L 515.91,208.38 L 517.76,207.35 L 518.93,206.48 L 520.57,204.80 L 520.95,204.32 L 521.60,203.12 L 521.91,202.47 L 522.49,200.78 L 522.77,199.86 L 523.33,197.49 L 523.61,196.20 L 524.22,192.96 L 524.38,192.08 L 524.71,190.13 L 524.88,189.13 L 525.24,186.89 L 525.43,185.74 L 525.83,183.19 L 526.49,179.00 L 527.26,174.05 L 529.04,164.59 L 529.96,159.93 L 532.05,151.00 L 533.14,146.60 L 535.57,138.15 L 536.83,133.97 L 539.62,125.95 L 541.06,121.99 L 544.22,114.34 L 545.85,110.55 L 549.41,103.23 L 551.24,99.60 L 555.21,92.55 L 561.66,82.21 L 563.30,79.75 L 566.69,75.06 L 568.40,72.76 L 571.93,68.40 L 573.72,66.26 L 577.38,62.24 L 579.23,60.27 L 583.02,56.59 L 584.92,54.80 L 588.83,51.48 L 590.79,49.86 L 594.80,46.90 L 596.82,45.46 L 600.92,42.87 L 607.18,39.41 L 609.30,38.35 L 613.22,36.55 L 615.16,35.70 L 619.06,34.28 L 621.04,33.62 L 625.35,32.52 L 626.47,32.26 L 628.88,31.80 L 630.11,31.58 L 632.76,31.17 L 634.13,30.97 L 637.09,30.62 L 638.62,30.44 L 641.95,30.13 L 643.67,29.98 L 647.42,29.70 L 649.35,29.56 L 653.58,29.31 L 655.75,29.19 L 660.51,28.95 L 662.96,28.84 L 668.30,28.62 L 671.05,28.51 L 677.03,28.29 L 686.78,27.95 L 689.36,27.86 L 694.20,27.72 L 696.57,27.65 L 701.01,27.53 L 703.18,27.48 L 707.26,27.41 L 709.26,27.37 L 713.02,27.33 L 714.86,27.32 M 463.51,702.44 L 463.95,704.05 L 463.74,703.35 L 463.45,702.27 L 463.39,701.91 M 463.04,698.28 L 463.16,700.24 L 463.14,700.08 L 463.03,698.99 L 463.04,698.20 M 466.56,686.60 L 465.14,688.98 L 464.61,690.25 L 463.69,692.84 L 463.42,694.18 L 463.08,696.52 L 463.13,695.71 L 463.52,693.57 L 463.75,692.51 L 464.46,690.46 L 464.86,689.46 L 465.90,687.54 L 466.46,686.60 L 467.13,685.74 M 467.57,685.18 L 467.81,684.86 L 468.19,684.49 M 661.97,67.78 L 657.29,67.91 L 655.10,68.10 L 650.82,68.58 L 648.79,68.95 L 644.79,69.80 L 642.87,70.36 L 639.04,71.59 L 637.16,72.36 L 633.41,74.00 L 631.52,74.98 L 627.72,77.04 L 625.77,78.24 L 621.99,80.68 L 619.34,82.49 L 618.04,83.42 L 615.51,85.28 L 614.40,86.14 L 612.29,87.81 L 611.51,88.50 L 608.74,91.09 L 606.64,93.17 L 605.53,94.33 L 600.94,99.19 L 598.78,101.62 L 596.68,104.01 L 595.75,105.11 L 593.98,107.23 L 593.28,108.12 L 592.00,109.78 L 591.61,110.38 L 591.26,110.93 L 591.16,111.14 L 591.00,111.50 L 591.00,111.60 L 590.65,112.77 L 590.11,114.19 L 589.71,115.14 L 588.85,117.19 L 588.32,118.37 L 587.23,120.81 L 586.63,122.10 L 582.02,132.51 L 579.22,139.42 L 577.94,142.92 L 575.45,149.95 L 574.30,153.56 L 572.08,160.89 L 571.05,164.72 L 569.05,172.50 L 568.12,176.63 L 566.29,185.04 L 565.43,189.55 L 563.74,198.77 L 562.92,203.74 L 562.11,208.78 L 561.71,211.40 L 560.92,216.70 L 560.52,219.46 L 558.40,235.20 L 557.20,245.16 L 556.70,250.08 L 555.77,259.92 L 555.39,265.00 L 555.02,270.13 L 554.86,272.77 L 554.55,278.12 L 554.42,280.90 L 554.15,286.54 L 554.04,289.50 L 553.83,295.51 L 553.74,298.68 L 553.57,305.14 L 553.49,308.57 L 553.36,315.55 L 553.31,319.27 L 553.21,326.85 L 553.17,330.89 L 553.11,339.16 L 553.09,343.57 L 553.05,352.58 L 553.04,357.40 L 553.02,367.24 L 553.02,372.50 L 553.04,390.39 L 553.08,401.71 L 553.11,407.10 L 553.17,417.72 L 553.22,422.80 L 553.32,432.81 L 553.38,437.62 L 553.52,447.12 L 553.61,451.72 L 553.79,460.81 L 553.90,465.24 L 554.38,482.66 L 554.69,491.15 L 555.39,508.03 L 555.82,516.54 L 556.75,533.67 L 557.32,542.60 L 557.90,551.61 L 558.22,556.25 L 558.87,565.65 L 559.23,570.52 L 559.96,580.40 L 560.36,585.56 L 561.17,596.02 L 561.60,601.50 L 562.41,610.62 L 563.07,617.18 L 563.43,620.57 L 564.19,627.38 L 564.59,630.75 L 565.40,637.43 L 565.81,640.59 L 566.62,646.75 L 567.01,649.51 L 567.40,652.21 L 567.59,653.45 L 567.95,655.86 L 568.13,656.94 L 568.47,659.02 L 568.63,659.91 L 568.94,661.61 L 569.08,662.30 L 569.36,663.56 L 569.48,664.02 L 569.71,664.80 L 569.80,665.00 L 570.94,666.85 L 571.91,667.93 L 572.56,668.45 L 573.99,669.47 L 574.93,670.01 L 576.98,671.12 L 578.30,671.75 L 581.65,673.22 L 584.12,674.21 L 585.45,674.69 L 590.99,676.59 L 593.88,677.43 L 599.69,679.02 L 602.44,679.63 L 605.15,680.20 L 606.42,680.43 L 608.89,680.83 L 610.00,680.97 L 611.77,681.18 L 612.60,681.27 L 614.20,681.46 L 614.88,681.54 L 616.15,681.69 L 616.60,681.74 L 617.36,681.82 L 617.50,681.84 L 619.09,681.83 L 620.57,681.71 L 621.48,681.60 L 623.39,681.36 L 624.46,681.20 L 626.65,680.86 L 627.80,680.66 L 632.49,679.80 L 634.68,679.32 L 636.82,678.84 L 637.77,678.60 L 639.60,678.12 L 640.34,677.89 L 645.26,676.00 L 648.42,674.40 L 649.92,673.46 L 652.88,671.47 L 654.27,670.34 L 656.99,668.00 L 658.24,666.72 L 660.67,664.07 L 661.76,662.65 L 663.87,659.73 L 664.78,658.20 L 666.51,655.07 L 667.22,653.43 L 668.53,650.13 L 669.02,648.43 L 670.00,644.03 L 670.26,642.34 L 670.36,641.37 L 670.57,639.34 L 670.66,638.15 L 670.82,635.66 L 670.90,634.20 L 671.03,631.13 L 671.09,629.33 L 671.21,625.56 L 671.26,623.37 L 671.37,618.78 L 671.42,616.13 L 672.08,596.81 L 672.40,590.55 L 672.59,587.57 L 672.98,581.71 L 673.20,578.99 L 673.64,573.73 L 673.87,571.39 L 674.35,566.91 L 674.60,565.03 L 674.84,563.22 L 674.97,562.42 L 675.21,560.89 L 675.34,560.23 L 675.59,559.00 L 675.71,558.50 L 675.96,557.60 L 676.08,557.27 L 677.48,554.54 L 678.74,552.82 L 679.53,552.01 L 681.22,550.44 L 682.21,549.71 L 684.30,548.30 L 685.50,547.65 L 688.31,546.59 L 690.70,546.06 L 692.12,545.87 L 695.13,545.55 L 696.84,545.47 L 700.40,545.37 L 702.37,545.40 L 706.41,545.52 L 708.59,545.66 L 713.06,546.00 L 715.42,546.25 L 720.24,546.80 L 722.76,547.15 L 727.86,547.92 L 730.50,548.38 L 735.31,549.20 L 738.27,549.66 L 739.67,549.85 L 745.18,550.54 L 748.11,550.78 L 751.10,551.00 L 752.74,551.10 L 756.11,551.27 L 757.99,551.34 L 761.92,551.48 L 764.16,551.54 L 768.83,551.66 L 771.50,551.71 L 782.92,551.85 L 790.01,551.84 L 793.22,551.78 L 796.36,551.72 L 797.83,551.67 L 800.70,551.57 L 802.03,551.51 L 804.60,551.38 L 805.77,551.30 L 808.01,551.14 L 809.00,551.04 L 819.59,550.04 L 822.83,549.74 L 824.18,549.61 L 825.48,549.49 L 826.04,549.44 L 827.09,549.34 L 827.50,549.31 L 833.50,548.76 L 828.00,554.46 L 821.79,560.35 L 817.57,563.85 L 815.50,565.32 L 811.41,568.08 L 809.50,569.12 L 807.62,570.10 L 806.73,570.49 L 804.99,571.20 L 804.18,571.46 L 796.77,574.21 L 792.53,576.28 L 790.72,577.49 L 787.32,580.03 L 785.91,581.51 L 783.28,584.63 L 782.23,586.46 L 780.29,590.30 L 779.56,592.54 L 778.86,594.83 L 778.57,596.06 L 778.02,598.58 L 777.79,599.94 L 777.37,602.71 L 777.21,604.20 L 776.92,607.23 L 776.81,608.86 L 776.63,612.18 L 776.58,613.95 L 776.51,617.57 L 776.51,619.50 L 776.51,624.67 L 776.53,627.50 L 776.56,628.67 L 776.62,630.85 L 776.67,631.74 L 776.79,633.41 L 776.88,634.11 L 777.33,636.60 L 777.73,637.68 L 778.64,639.86 L 779.33,641.26 L 782.08,645.74 L 784.27,648.30 L 785.56,649.36 L 788.30,651.35 L 789.89,652.15 L 793.24,653.59 L 795.17,654.12 L 799.22,655.05 L 801.52,655.32 L 806.32,655.74 L 809.04,655.77 L 814.67,655.71 L 817.83,655.51 L 821.05,655.28 L 822.74,655.12 L 826.20,654.77 L 828.02,654.56 L 834.08,653.83 L 837.73,653.38 L 839.38,653.15 L 842.55,652.68 L 843.97,652.42 L 846.70,651.90 L 847.90,651.60 L 850.22,650.97 L 851.23,650.60 L 853.16,649.83 L 854.00,649.37 L 855.59,648.41 L 856.27,647.83 L 857.54,646.63 L 858.08,645.92 L 859.08,644.43 L 859.49,643.57 L 860.25,641.75 L 860.55,640.70 L 861.10,638.51 L 861.31,637.26 L 861.69,634.65 L 861.83,633.17 L 862.07,630.10 L 862.15,628.37 L 862.28,624.78 L 862.32,622.79 L 862.38,618.65 L 862.40,616.35 L 862.42,611.61 L 862.44,609.00 L 862.46,604.69 L 862.47,602.06 L 862.48,600.85 L 862.50,598.51 L 862.52,597.44 L 862.54,595.37 L 862.56,594.43 L 862.63,590.89 L 862.68,589.42 L 862.80,586.69 L 862.87,585.55 L 863.05,583.42 L 863.16,582.52 L 863.40,580.80 L 863.55,580.03 L 864.24,577.10 L 864.74,575.50 L 868.32,563.09 L 870.65,554.10 L 871.78,549.31 L 873.99,539.55 L 875.05,534.46 L 877.11,524.14 L 878.07,518.85 L 879.95,508.19 L 880.80,502.80 L 882.45,492.00 L 883.17,486.62 L 884.55,475.89 L 885.13,470.61 L 886.21,460.15 L 886.62,455.10 L 886.95,450.35 L 887.14,446.90 L 887.22,445.05 L 887.38,441.26 L 887.44,439.27 L 887.56,435.21 L 887.61,433.09 L 887.75,424.43 L 887.77,419.91 L 887.77,410.77 L 887.72,406.18 L 887.59,397.02 L 887.47,392.59 L 887.21,383.86 L 887.03,379.82 L 886.84,375.84 L 886.73,373.96 L 886.52,370.28 L 886.39,368.56 L 886.15,365.23 L 886.01,363.71 L 885.73,360.79 L 885.58,359.50 L 884.50,348.70 L 884.24,345.47 L 884.16,344.14 L 884.09,342.88 L 884.07,342.35 L 884.03,341.35 L 884.03,340.97 L 883.80,337.23 L 883.41,335.19 L 883.07,334.40 L 882.29,332.96 L 881.72,332.46 L 880.47,331.59 L 879.64,331.37 L 877.84,331.06 L 876.71,331.10 L 874.28,331.33 L 872.81,331.63 L 869.67,332.36 L 867.81,332.91 L 863.89,334.13 L 861.61,334.92 L 858.94,335.78 L 856.82,336.41 L 855.61,336.75 L 853.10,337.45 L 851.72,337.81 L 848.87,338.56 L 847.34,338.95 L 840.95,340.54 L 837.45,341.36 L 830.30,343.02 L 826.59,343.85 L 819.12,345.48 L 815.42,346.26 L 808.06,347.78 L 804.57,348.46 L 797.77,349.76 L 794.72,350.30 L 791.74,350.81 L 790.36,351.03 L 787.70,351.45 L 786.50,351.63 L 780.11,352.39 L 775.58,352.78 L 773.23,352.93 L 763.64,353.36 L 758.87,353.36 L 754.13,353.32 L 751.84,353.25 L 747.33,353.07 L 745.21,352.92 L 741.07,352.59 L 739.19,352.37 L 735.56,351.90 L 734.00,351.61 L 723.48,349.24 L 716.60,347.27 L 713.26,346.11 L 706.63,343.68 L 703.44,342.30 L 697.15,339.43 L 694.15,337.86 L 688.28,334.61 L 685.52,332.86 L 680.14,329.27 L 677.67,327.37 L 672.87,323.48 L 670.71,321.44 L 666.57,317.30 L 664.78,315.15 L 661.34,310.51 L 659.04,306.91 L 657.90,304.89 L 655.64,300.72 L 654.54,298.47 L 652.36,293.85 L 651.33,291.42 L 649.29,286.47 L 648.34,283.92 L 646.49,278.76 L 645.66,276.15 L 644.05,270.90 L 643.35,268.28 L 642.03,263.06 L 641.50,260.50 L 640.64,255.53 L 640.14,251.73 L 639.93,249.63 L 639.53,245.28 L 639.37,242.93 L 639.08,238.12 L 638.98,235.58 L 638.79,230.42 L 638.74,227.74 L 638.67,222.32 L 638.68,219.54 L 638.83,208.31 L 639.09,202.68 L 639.28,198.67 L 639.41,196.21 L 639.47,195.07 L 639.73,190.76 L 639.88,188.92 L 640.18,185.44 L 640.36,183.94 L 640.73,181.09 L 640.96,179.84 L 641.45,177.43 L 641.74,176.33 L 642.37,174.18 L 642.75,173.13 L 643.56,171.04 L 644.05,169.95 L 645.07,167.73 L 645.68,166.50 L 649.23,160.46 L 652.02,156.75 L 653.63,155.05 L 657.00,151.75 L 658.89,150.25 L 662.84,147.36 L 665.03,146.05 L 671.55,142.61 L 673.81,141.63 L 675.02,141.17 L 677.50,140.27 L 678.86,139.84 L 681.67,138.99 L 683.25,138.57 L 686.52,137.72 L 688.37,137.29 L 692.23,136.42 L 694.41,135.96 L 698.96,135.02 L 701.54,134.51 L 707.33,133.37 L 710.92,132.68 L 712.61,132.37 L 719.05,131.20 L 721.97,130.72 L 727.66,129.84 L 730.39,129.49 L 735.81,128.87 L 738.60,128.63 L 744.26,128.21 L 747.35,128.07 L 750.49,127.93 L 752.16,127.88 L 755.57,127.78 L 757.39,127.74 L 761.12,127.67 L 763.13,127.64 L 767.24,127.60 L 769.47,127.58 L 774.04,127.55 L 776.51,127.55 L 781.59,127.53 L 784.34,127.53 L 824.17,127.50 L 826.09,125.14 L 827.44,122.98 L 828.00,121.57 L 828.00,121.12 L 827.84,120.65 L 827.58,120.20 L 827.38,119.92 L 826.40,118.63 L 825.68,117.79 L 824.09,115.99 L 823.12,114.96 L 821.07,112.81 L 819.93,111.66 L 815.10,106.89 L 812.59,104.58 L 810.10,102.30 L 808.90,101.26 L 806.56,99.25 L 805.50,98.39 L 798.61,93.24 L 793.83,90.03 L 791.37,88.54 L 786.38,85.65 L 783.83,84.33 L 778.68,81.77 L 776.06,80.63 L 770.79,78.42 L 768.12,77.46 L 762.77,75.64 L 760.08,74.87 L 754.69,73.43 L 751.99,72.87 L 746.59,71.84 L 743.91,71.49 L 741.12,71.17 L 739.02,70.97 L 737.86,70.88 L 732.95,70.54 L 730.20,70.41 L 724.54,70.17 L 721.56,70.10 L 715.56,69.99 L 712.56,69.99 L 703.63,69.87 L 697.27,69.70 L 694.13,69.57 L 687.97,69.29 L 685.21,69.12 L 682.53,68.95 L 681.32,68.86 L 679.00,68.68 L 678.00,68.58 L 669.54,67.95 L 664.36,67.75 M 472.92,680.40 L 473.04,680.32 L 474.01,679.77 L 474.53,679.48 L 475.40,679.07 M 904.26,667.44 L 911.79,669.11 L 913.62,669.57 L 917.16,670.64 L 918.91,671.19 L 921.81,672.28 L 921.52,672.17 L 917.92,670.92 L 915.98,670.35 L 912.02,669.25 L 909.88,668.76 L 905.50,667.80 L 903.15,667.37 L 900.98,667.00 M 518.52,665.30 L 517.72,665.35 L 514.78,665.63 L 513.14,665.91 L 509.74,666.58 L 507.84,667.07 L 503.90,668.16 L 501.68,668.87 L 501.14,669.05 L 502.71,668.52 L 504.21,668.03 L 506.93,667.22 L 508.26,666.84 L 510.69,666.26 L 511.87,665.99 L 514.05,665.61 L 515.12,665.45 L 517.12,665.27 M 497.14,251.60 L 495.59,251.74 L 492.53,252.08 L 491.10,252.36 L 488.30,252.99 L 487.06,253.41 L 481.79,256.00 L 478.48,258.43 L 476.89,260.01 L 472.36,265.28 L 470.00,268.98 L 469.08,271.09 L 468.19,273.25 L 467.79,274.43 L 467.03,276.87 L 466.69,278.21 L 466.03,280.98 L 465.72,282.52 L 465.13,285.69 L 464.85,287.45 L 463.99,292.36 L 463.38,295.48 L 463.08,296.84 L 462.48,299.41 L 462.22,300.38 L 461.96,301.30 L 461.84,301.65 L 461.61,302.29 L 461.51,302.50 L 461.15,303.60 L 460.91,304.68 L 460.79,305.40 L 460.55,306.95 L 460.42,307.90 L 460.18,309.92 L 460.05,311.10 L 459.80,313.59 L 459.68,315.01 L 459.43,317.97 L 459.30,319.63 L 459.04,323.06 L 458.91,324.96 L 458.65,328.87 L 458.52,331.00 L 457.82,342.20 L 457.31,350.05 L 457.06,353.86 L 456.81,357.62 L 456.68,359.42 L 456.44,362.95 L 456.33,364.58 L 456.11,367.75 L 456.01,369.17 L 455.81,371.87 L 455.73,373.00 L 455.48,377.12 L 455.33,380.53 L 455.25,382.52 L 455.11,386.68 L 455.04,388.98 L 454.92,393.72 L 454.86,396.26 L 454.75,401.43 L 454.71,404.13 L 454.63,409.58 L 454.60,412.36 L 454.50,423.57 L 454.50,429.00 L 454.57,442.83 L 454.68,451.39 L 454.78,455.36 L 455.00,463.11 L 455.15,466.69 L 455.49,473.66 L 455.71,476.88 L 456.19,483.13 L 456.48,486.01 L 457.11,491.59 L 457.48,494.15 L 458.27,499.12 L 458.72,501.39 L 459.69,505.78 L 460.24,507.79 L 461.39,511.67 L 462.05,513.43 L 463.40,516.84 L 464.16,518.39 L 465.74,521.38 L 466.61,522.74 L 468.42,525.37 L 469.41,526.56 L 471.47,528.87 L 472.59,529.93 L 474.90,531.97 L 476.16,532.91 L 478.75,534.74 L 480.15,535.59 L 483.02,537.25 L 484.57,538.04 L 489.98,540.53 L 491.67,541.22 L 492.39,541.48 L 493.72,541.94 L 494.17,542.06 L 495.26,542.28 L 495.99,542.37 L 497.58,542.53 L 498.49,542.58 L 502.36,542.73 L 504.20,542.67 L 507.70,542.45 L 509.45,542.21 L 510.14,542.02 L 511.40,541.56 L 511.94,541.23 L 513.00,540.48 L 513.55,539.97 L 515.79,537.55 L 517.04,535.81 L 517.56,534.86 L 518.51,532.88 L 518.87,531.79 L 519.53,529.51 L 519.75,528.23 L 520.13,525.58 L 520.22,524.09 L 520.33,521.00 L 520.29,519.26 L 520.14,515.65 L 519.97,513.63 L 519.58,509.44 L 519.30,507.10 L 518.83,502.38 L 518.69,500.59 L 518.62,499.60 L 518.50,497.55 L 518.44,496.41 L 518.33,494.05 L 518.28,492.72 L 518.18,489.98 L 518.13,488.45 L 518.04,485.27 L 518.00,483.50 L 517.92,479.82 L 517.89,477.77 L 517.81,473.53 L 517.78,471.18 L 517.72,466.32 L 517.69,463.64 L 517.63,458.10 L 517.61,455.06 L 517.55,448.78 L 517.53,445.34 L 517.48,438.25 L 517.46,434.39 L 517.42,426.44 L 517.40,422.12 L 517.35,413.25 L 517.33,408.44 L 517.29,398.58 L 517.27,393.26 L 517.23,380.66 L 517.20,372.67 L 517.19,368.88 L 517.18,361.44 L 517.17,357.92 L 517.17,351.01 L 517.16,347.76 L 517.16,341.38 L 517.17,338.39 L 517.17,332.53 L 517.18,329.79 L 517.20,324.44 L 517.21,321.96 L 517.23,317.11 L 517.25,314.88 L 517.28,310.53 L 517.30,308.54 L 517.34,304.67 L 517.36,302.92 L 517.41,299.53 L 517.43,298.02 L 517.49,295.10 L 517.52,293.81 L 517.59,291.36 L 517.62,290.30 L 517.69,288.30 L 517.73,287.46 L 517.81,285.90 L 517.86,285.29 L 517.95,284.16 L 518.00,283.76 L 518.76,277.14 L 519.17,273.28 L 519.32,271.61 L 519.59,268.44 L 519.68,267.10 L 519.83,264.55 L 519.85,263.48 L 519.86,261.49 L 519.82,260.68 L 519.71,259.17 L 519.60,258.58 L 519.36,257.49 L 519.19,257.09 L 518.82,256.36 L 518.59,256.10 L 516.44,254.52 L 514.48,253.61 L 513.30,253.25 L 510.79,252.57 L 509.40,252.31 L 506.51,251.87 L 504.98,251.74 L 501.88,251.54 L 500.30,251.54 M 793.15,160.17 L 788.18,160.23 L 785.50,160.30 L 777.37,160.64 L 772.10,160.98 L 769.46,161.21 L 764.14,161.74 L 761.37,162.09 L 755.73,162.85 L 752.70,163.33 L 746.47,164.37 L 743.03,165.01 L 739.54,165.66 L 737.70,166.03 L 733.95,166.77 L 731.97,167.18 L 727.92,168.01 L 725.78,168.47 L 721.41,169.40 L 719.09,169.91 L 714.36,170.95 L 711.85,171.51 L 706.72,172.65 L 704.00,173.27 L 699.71,174.32 L 697.25,175.05 L 696.19,175.44 L 694.16,176.27 L 693.28,176.75 L 691.58,177.76 L 690.82,178.37 L 689.34,179.66 L 688.65,180.43 L 687.29,182.07 L 686.62,183.06 L 685.27,185.14 L 684.56,186.38 L 683.11,188.99 L 682.32,190.52 L 678.23,199.63 L 676.22,205.69 L 675.53,208.91 L 674.89,212.18 L 674.65,213.89 L 674.19,217.39 L 674.03,219.25 L 673.76,223.04 L 673.68,225.08 L 673.56,229.25 L 673.55,231.50 L 673.72,239.87 L 674.05,244.88 L 674.35,247.14 L 675.03,251.52 L 675.52,253.53 L 676.62,257.45 L 677.35,259.30 L 678.92,262.91 L 679.91,264.66 L 682.02,268.14 L 683.30,269.88 L 686.02,273.37 L 687.63,275.18 L 691.01,278.84 L 692.97,280.80 L 700.37,287.75 L 705.25,291.90 L 707.69,293.75 L 712.56,297.29 L 715.03,298.84 L 720.00,301.82 L 722.54,303.11 L 727.66,305.55 L 730.31,306.59 L 735.68,308.55 L 738.49,309.36 L 744.18,310.88 L 747.18,311.48 L 753.27,312.59 L 756.50,313.01 L 760.11,313.49 L 762.35,313.79 L 763.30,313.92 L 765.07,314.17 L 765.71,314.26 L 766.79,314.43 L 767.00,314.47 L 767.29,314.51 L 767.55,314.53 L 768.14,314.57 L 768.54,314.60 L 770.39,314.68 L 771.63,314.71 L 774.29,314.79 L 775.82,314.82 L 778.99,314.87 L 780.66,314.88 L 786.01,314.83 L 789.78,314.69 L 791.73,314.58 L 799.69,313.99 L 803.69,313.55 L 811.64,312.55 L 815.34,311.93 L 818.98,311.28 L 820.68,310.94 L 824.00,310.23 L 825.50,309.85 L 834.22,307.46 L 840.33,305.59 L 843.45,304.56 L 856.08,300.15 L 862.14,297.74 L 868.12,295.30 L 870.95,294.08 L 876.46,291.63 L 878.96,290.43 L 883.79,288.04 L 885.87,286.91 L 887.89,285.78 L 888.80,285.24 L 890.56,284.17 L 891.33,283.66 L 898.01,278.31 L 902.07,274.11 L 903.85,271.79 L 907.23,267.00 L 908.59,264.46 L 909.90,261.91 L 910.46,260.62 L 911.52,258.01 L 911.95,256.71 L 913.46,250.33 L 914.03,245.78 L 914.10,243.41 L 914.10,238.60 L 913.90,236.15 L 913.36,231.23 L 912.89,228.78 L 911.84,223.88 L 911.13,221.48 L 909.59,216.74 L 908.64,214.48 L 906.64,210.05 L 905.47,207.99 L 903.03,203.99 L 901.66,202.21 L 896.50,196.24 L 892.63,192.45 L 890.49,190.64 L 886.08,187.10 L 883.68,185.43 L 878.75,182.15 L 876.10,180.62 L 870.68,177.64 L 867.80,176.26 L 861.93,173.57 L 858.82,172.35 L 852.52,169.98 L 849.21,168.92 L 842.50,166.89 L 839.00,166.00 L 831.90,164.29 L 827.44,163.32 L 825.30,162.91 L 816.98,161.48 L 812.88,161.04 L 808.76,160.65 L 806.64,160.52 L 802.37,160.29 L 800.13,160.23 L 795.58,160.15 Z" fill="rgba(0,0,0,1)"/>
<path d="M 729.66,648.54 L 731.75,648.54 L 732.77,648.55 L 734.61,648.57 L 736.38,648.59 L 739.23,648.71 L 740.56,648.78 L 742.66,649.08 L 743.63,649.25 L 745.16,649.81 L 745.87,650.12 L 747.02,651.01 L 747.56,651.50 L 748.51,652.82 L 748.97,653.53 L 749.91,655.35 L 751.50,658.72 L 752.33,660.51 L 754.23,663.89 L 755.22,665.55 L 757.41,668.67 L 758.55,670.18 L 761.00,672.99 L 762.26,674.35 L 764.92,676.80 L 766.28,677.98 L 769.13,680.06 L 770.57,681.05 L 773.54,682.71 L 775.04,683.48 L 778.11,684.69 L 782.78,685.96 L 783.12,686.02 L 784.43,686.13 L 785.19,686.18 L 787.27,686.26 L 788.40,686.29 L 791.16,686.34 L 792.62,686.36 L 795.98,686.38 L 797.73,686.39 L 801.61,686.37 L 803.60,686.36 L 807.90,686.32 L 810.10,686.30 L 814.74,686.23 L 822.00,686.08 L 824.03,686.04 L 827.75,685.95 L 829.56,685.91 L 832.85,685.83 L 834.44,685.79 L 837.33,685.72 L 838.73,685.68 L 841.25,685.60 L 842.47,685.56 L 844.66,685.49 L 845.71,685.45 L 847.60,685.37 L 849.41,685.28 L 852.28,685.09 L 853.61,684.99 L 855.69,684.75 L 856.66,684.63 L 858.21,684.32 L 862.17,683.05 L 862.94,682.74 L 864.61,681.90 L 865.46,681.44 L 867.24,680.35 L 869.03,679.20 L 872.63,676.41 L 874.38,674.97 L 877.47,671.94 L 878.18,671.19 L 879.42,669.73 L 880.91,667.65 L 882.96,664.33 L 895.73,666.17 L 898.32,666.54 L 903.15,667.37 L 905.50,667.80 L 909.88,668.76 L 912.02,669.25 L 915.98,670.35 L 917.92,670.92 L 921.52,672.17 L 923.28,672.82 L 926.55,674.24 L 928.15,674.97 L 931.13,676.58 L 932.59,677.41 L 935.33,679.21 L 939.19,682.16 L 940.04,682.87 L 941.52,684.21 L 942.22,684.87 L 943.43,686.14 L 944.57,687.39 L 946.14,689.86 L 946.82,691.12 L 947.58,693.81 L 948.00,698.47 L 948.00,700.07 L 947.60,703.04 L 947.33,704.49 L 946.37,707.18 L 945.81,708.49 L 944.23,710.93 L 943.37,712.12 L 941.14,714.35 L 939.95,715.44 L 937.03,717.49 L 935.49,718.49 L 931.85,720.41 L 929.93,721.35 L 925.52,723.16 L 918.00,725.80 L 915.46,726.61 L 910.78,728.04 L 908.49,728.72 L 904.13,729.94 L 899.82,731.11 L 891.24,732.98 L 889.03,733.43 L 884.35,734.26 L 881.95,734.67 L 876.73,735.46 L 874.03,735.85 L 868.05,736.64 L 858.00,737.88 L 855.33,738.20 L 850.40,738.75 L 847.99,739.02 L 843.51,739.47 L 841.31,739.69 L 837.17,740.05 L 835.14,740.23 L 831.24,740.50 L 827.39,740.76 L 819.99,741.05 L 808.50,741.20 L 806.26,741.20 L 802.49,741.28 L 800.72,741.33 L 797.83,741.53 L 796.48,741.64 L 794.41,741.96 L 792.13,742.59 L 791.78,742.74 L 790.44,742.99 L 790.04,743.05 L 789.03,743.16 L 788.48,743.21 L 787.15,743.30 L 786.44,743.35 L 784.74,743.43 L 783.84,743.47 L 781.73,743.54 L 780.62,743.58 L 778.06,743.64 L 776.72,743.67 L 773.67,743.72 L 772.08,743.74 L 768.48,743.78 L 766.62,743.80 L 762.45,743.83 L 760.28,743.85 L 755.49,743.87 L 753.01,743.88 L 747.54,743.90 L 744.72,743.90 L 738.55,743.91 L 735.37,743.91 L 728.44,743.91 L 724.88,743.91 L 717.16,743.91 L 704.63,743.90 L 698.84,743.89 L 687.66,743.86 L 682.15,743.84 L 671.69,743.79 L 666.57,743.76 L 657.08,743.69 L 654.77,743.67 L 650.39,743.64 L 648.24,743.62 L 644.18,743.57 L 642.20,743.55 L 638.50,743.50 L 636.69,743.48 L 633.37,743.43 L 631.76,743.41 L 628.86,743.36 L 627.46,743.33 L 625.00,743.28 L 623.82,743.25 L 621.84,743.19 L 620.90,743.17 L 619.42,743.11 L 618.74,743.08 L 617.79,743.02 L 617.39,742.99 L 617.00,742.93 L 616.76,742.88 L 615.91,742.74 L 615.43,742.67 L 614.14,742.52 L 613.45,742.44 L 611.79,742.27 L 610.92,742.19 L 608.95,742.02 L 606.91,741.84 L 602.15,741.50 L 594.50,741.02 L 591.16,740.84 L 584.70,740.42 L 581.50,740.21 L 575.31,739.74 L 572.25,739.50 L 566.33,738.96 L 563.40,738.69 L 557.73,738.10 L 552.13,737.49 L 541.68,736.08 L 536.57,735.35 L 527.07,733.68 L 522.42,732.81 L 513.81,730.87 L 509.60,729.86 L 501.81,727.64 L 498.02,726.49 L 491.01,723.96 L 481.30,719.84 L 480.05,719.25 L 477.82,718.13 L 476.75,717.57 L 474.86,716.51 L 473.95,715.98 L 472.35,714.95 L 471.58,714.43 L 470.25,713.40 L 468.97,712.37 L 467.06,710.19 L 464.88,706.54 L 464.27,705.20 L 463.51,702.44 L 463.21,701.06 L 463.04,698.28 L 463.03,696.90 L 463.42,694.18 L 463.69,692.84 L 464.61,690.25 L 465.14,688.98 L 466.56,686.60 L 467.33,685.45 L 469.21,683.35 L 470.21,682.34 L 472.53,680.61 L 476.47,678.49 L 478.20,677.77 L 481.48,676.42 L 483.09,675.76 L 486.15,674.54 L 489.14,673.35 L 494.50,671.35 L 497.08,670.40 L 501.68,668.87 L 503.90,668.16 L 507.84,667.07 L 509.74,666.58 L 513.14,665.91 L 514.78,665.63 L 517.72,665.35 L 519.14,665.26 L 521.73,665.35 L 525.33,665.87 L 530.88,667.12 L 532.11,672.81 L 532.40,674.17 L 533.16,676.80 L 533.57,678.10 L 534.56,680.60 L 535.09,681.83 L 536.32,684.20 L 536.97,685.36 L 538.44,687.61 L 539.21,688.71 L 540.94,690.83 L 541.83,691.88 L 543.81,693.88 L 544.83,694.87 L 547.06,696.75 L 548.21,697.68 L 550.71,699.45 L 551.99,700.33 L 554.76,701.99 L 556.17,702.81 L 559.21,704.37 L 560.76,705.14 L 564.07,706.59 L 565.76,707.31 L 569.36,708.66 L 571.19,709.33 L 575.07,710.59 L 577.04,711.20 L 581.21,712.37 L 583.33,712.94 L 587.80,714.02 L 594.83,715.53 L 598.94,716.36 L 606.98,717.43 L 610.98,717.87 L 618.80,718.18 L 622.68,718.24 L 630.28,717.80 L 634.05,717.48 L 641.43,716.27 L 645.09,715.58 L 652.25,713.61 L 655.80,712.53 L 662.73,709.81 L 666.17,708.35 L 672.88,704.87 L 682.69,698.79 L 684.59,697.48 L 687.97,694.87 L 689.60,693.57 L 692.47,690.92 L 693.84,689.59 L 696.24,686.83 L 697.38,685.43 L 699.35,682.49 L 700.28,680.99 L 701.86,677.81 L 702.61,676.17 L 703.85,672.67 L 704.43,670.87 L 705.37,666.97 L 706.48,660.62 L 706.60,659.76 L 706.82,658.31 L 706.93,657.63 L 707.16,656.50 L 707.40,655.44 L 708.06,654.00 L 708.45,653.34 L 709.64,652.32 L 712.37,650.71 L 713.28,650.22 L 714.94,649.55 L 715.80,649.25 L 717.85,648.89 L 718.42,648.81 L 719.73,648.70 L 720.43,648.65 L 722.06,648.59 L 722.92,648.56 L 724.94,648.54 L 728.50,648.53 M 694.55,176.61 L 694.56,177.38 L 694.63,177.89 L 695.05,180.22 L 695.46,181.57 L 697.35,187.74 L 698.50,191.51 L 699.03,193.23 L 700.06,196.55 L 700.53,198.07 L 701.45,201.00 L 701.87,202.33 L 702.70,204.90 L 703.08,206.07 L 703.82,208.32 L 704.16,209.34 L 705.48,213.14 L 706.07,214.70 L 707.22,217.62 L 707.77,218.85 L 708.86,221.19 L 709.42,222.25 L 710.56,224.32 L 711.20,225.35 L 712.51,227.44 L 713.27,228.60 L 716.97,233.69 L 719.61,236.83 L 721.02,238.27 L 723.89,241.06 L 725.42,242.33 L 728.52,244.78 L 730.16,245.88 L 733.50,247.98 L 735.25,248.90 L 738.81,250.66 L 740.67,251.41 L 744.45,252.81 L 746.42,253.38 L 750.42,254.43 L 752.50,254.83 L 757.32,255.77 L 758.71,256.05 L 759.25,256.16 L 760.22,256.37 L 760.50,256.44 L 761.18,256.54 L 761.77,256.58 L 763.13,256.66 L 764.03,256.68 L 765.99,256.73 L 767.17,256.74 L 769.65,256.75 L 771.06,256.75 L 773.98,256.73 L 775.57,256.71 L 778.85,256.67 L 780.60,256.65 L 787.85,256.51 L 791.71,256.41 L 799.52,256.19 L 803.41,256.06 L 811.14,255.78 L 814.76,255.63 L 818.31,255.47 L 819.99,255.38 L 823.27,255.21 L 824.77,255.13 L 827.69,254.95 L 828.98,254.86 L 831.46,254.68 L 832.50,254.59 L 841.76,253.76 L 847.49,253.22 L 850.14,252.96 L 855.30,252.43 L 857.68,252.17 L 862.31,251.64 L 864.45,251.38 L 868.59,250.85 L 870.50,250.58 L 874.20,250.03 L 875.89,249.75 L 879.18,249.17 L 880.68,248.88 L 883.59,248.27 L 884.92,247.95 L 887.50,247.30 L 888.68,246.96 L 890.97,246.25 L 892.01,245.88 L 895.95,244.32 L 897.62,243.42 L 900.80,241.55 L 902.22,240.47 L 904.95,238.20 L 906.25,236.90 L 908.01,235.12 L 908.97,234.11 L 909.36,233.67 L 910.70,232.07 L 911.09,231.38 L 911.70,230.06 L 911.82,229.34 L 911.97,227.82 L 911.97,226.83 L 911.73,224.32 L 911.38,222.43 L 911.11,221.42 L 911.09,221.38 L 911.13,221.48 L 911.84,223.88 L 912.89,228.78 L 913.36,231.23 L 913.90,236.15 L 914.10,238.60 L 914.10,243.41 L 914.03,245.78 L 913.46,250.33 L 911.95,256.71 L 911.52,258.01 L 910.46,260.62 L 909.90,261.91 L 908.59,264.46 L 907.23,267.00 L 903.85,271.79 L 902.07,274.11 L 898.01,278.31 L 891.33,283.66 L 890.56,284.17 L 888.80,285.24 L 887.89,285.78 L 885.87,286.91 L 883.79,288.04 L 878.96,290.43 L 876.46,291.63 L 870.95,294.08 L 868.12,295.30 L 862.14,297.74 L 856.08,300.15 L 843.45,304.56 L 840.33,305.59 L 834.22,307.46 L 825.50,309.85 L 824.00,310.23 L 820.68,310.94 L 818.98,311.28 L 815.34,311.93 L 811.64,312.55 L 803.69,313.55 L 799.69,313.99 L 791.73,314.58 L 789.78,314.69 L 786.01,314.83 L 780.66,314.88 L 778.99,314.87 L 775.82,314.82 L 774.29,314.79 L 771.63,314.71 L 770.39,314.68 L 768.54,314.60 L 768.14,314.57 L 767.55,314.53 L 767.29,314.51 L 767.00,314.47 L 766.79,314.43 L 765.71,314.26 L 765.07,314.17 L 763.30,313.92 L 762.35,313.79 L 760.11,313.49 L 756.50,313.01 L 753.27,312.59 L 747.18,311.48 L 744.18,310.88 L 738.49,309.36 L 735.68,308.55 L 730.31,306.59 L 727.66,305.55 L 722.54,303.11 L 720.00,301.82 L 715.03,298.84 L 712.56,297.29 L 707.69,293.75 L 705.25,291.90 L 700.37,287.75 L 692.97,280.80 L 691.01,278.84 L 687.63,275.18 L 686.02,273.37 L 683.30,269.88 L 682.02,268.14 L 679.91,264.66 L 678.92,262.91 L 677.35,259.30 L 676.62,257.45 L 675.52,253.53 L 675.03,251.52 L 674.35,247.14 L 674.05,244.88 L 673.72,239.87 L 673.55,231.50 L 673.56,229.25 L 673.68,225.08 L 673.76,223.04 L 674.03,219.25 L 674.19,217.39 L 674.65,213.89 L 674.89,212.18 L 675.53,208.91 L 676.22,205.69 L 678.23,199.63 L 682.32,190.52 L 683.11,188.99 L 684.56,186.38 L 685.27,185.14 L 686.62,183.06 L 687.29,182.07 L 688.65,180.43 L 689.34,179.66 L 690.82,178.37 L 691.58,177.76 L 693.28,176.75 L 694.16,176.27 L 694.70,176.05 M 901.66,202.21 L 903.03,203.99 L 905.47,207.99 L 906.64,210.05 L 906.74,210.27 L 905.57,208.20 L 903.03,203.98 L 901.66,202.21 M 896.50,196.24 L 901.64,202.19 L 895.36,195.12 M 892.63,192.45 L 894.30,194.08 L 891.28,191.31 M 883.68,185.43 L 886.08,187.10 L 887.04,187.87 L 883.18,185.09 M 876.10,180.62 L 878.75,182.15 L 879.54,182.68 L 877.99,181.74 L 873.03,178.93 M 861.93,173.57 L 867.80,176.26 L 870.68,177.64 L 870.93,177.77 L 867.68,176.22 L 860.55,173.03 M 742.59,165.13 L 739.26,165.79 L 725.57,168.59 L 719.09,170.00 L 712.75,171.39 L 709.91,172.03 L 707.13,172.66 L 705.86,172.96 L 703.40,173.54 L 702.30,173.81 L 700.20,174.32 L 699.32,174.55 L 697.65,174.98 L 697.00,175.17 L 696.65,175.27 L 697.25,175.05 L 699.71,174.32 L 704.00,173.27 L 706.72,172.65 L 711.85,171.51 L 714.36,170.95 L 719.09,169.91 L 721.41,169.40 L 725.78,168.47 L 727.92,168.01 L 731.97,167.18 L 733.95,166.77 L 737.70,166.03 L 739.54,165.66 L 743.03,165.01 L 746.47,164.37 L 747.18,164.25 M 849.21,168.92 L 852.52,169.98 L 858.82,172.35 L 859.47,172.60 L 856.26,171.40 L 849.00,168.86 M 839.00,166.00 L 842.50,166.89 L 845.48,167.79 L 843.81,167.31 L 838.13,165.79 M 825.30,162.91 L 827.44,163.32 L 831.90,164.29 L 832.09,164.34 L 830.36,163.98 L 821.76,162.30 M 800.13,160.23 L 802.37,160.29 L 806.64,160.52 L 808.76,160.65 L 812.88,161.04 L 816.98,161.48 L 820.25,162.04 L 816.00,161.43 L 810.07,160.79 L 805.50,160.48 L 802.99,160.38 L 797.83,160.22 L 795.12,160.20 L 791.00,160.19 L 793.15,160.17 L 795.58,160.15 Z" fill="rgba(53,79,85,1)"/>
<path d="M 795.12,160.20 L 797.83,160.22 L 802.99,160.38 L 805.50,160.48 L 810.07,160.79 L 816.00,161.43 L 820.93,162.14 L 830.36,163.98 L 835.00,164.96 L 843.81,167.31 L 848.13,168.55 L 856.26,171.40 L 860.25,172.89 L 867.68,176.22 L 871.30,177.95 L 877.99,181.74 L 881.23,183.70 L 887.13,187.93 L 889.97,190.10 L 895.04,194.76 L 901.66,202.20 L 903.03,203.98 L 905.57,208.20 L 906.79,210.37 L 908.85,214.91 L 909.79,217.16 L 911.11,221.42 L 911.38,222.43 L 911.73,224.32 L 911.97,226.83 L 911.97,227.82 L 911.82,229.34 L 911.70,230.06 L 911.09,231.38 L 910.70,232.07 L 909.36,233.67 L 908.97,234.11 L 908.01,235.12 L 906.25,236.90 L 904.95,238.20 L 902.22,240.47 L 900.80,241.55 L 897.62,243.42 L 895.95,244.32 L 892.01,245.88 L 890.97,246.25 L 888.68,246.96 L 887.50,247.30 L 884.92,247.95 L 883.59,248.27 L 880.68,248.88 L 879.18,249.17 L 875.89,249.75 L 874.20,250.03 L 870.50,250.58 L 868.59,250.85 L 864.45,251.38 L 862.31,251.64 L 857.68,252.17 L 855.30,252.43 L 850.14,252.96 L 847.49,253.22 L 841.76,253.76 L 832.50,254.59 L 831.46,254.68 L 828.98,254.86 L 827.69,254.95 L 824.77,255.13 L 823.27,255.21 L 819.99,255.38 L 818.31,255.47 L 814.76,255.63 L 811.14,255.78 L 803.41,256.06 L 799.52,256.19 L 791.71,256.41 L 787.85,256.51 L 780.60,256.65 L 778.85,256.67 L 775.57,256.71 L 773.98,256.73 L 771.06,256.75 L 769.65,256.75 L 767.17,256.74 L 765.99,256.73 L 764.03,256.68 L 763.13,256.66 L 761.77,256.58 L 761.18,256.54 L 760.50,256.44 L 760.22,256.37 L 759.25,256.16 L 758.71,256.05 L 757.32,255.77 L 752.50,254.83 L 750.42,254.43 L 746.42,253.38 L 744.45,252.81 L 740.67,251.41 L 738.81,250.66 L 735.25,248.90 L 733.50,247.98 L 730.16,245.88 L 728.52,244.78 L 725.42,242.33 L 723.89,241.06 L 721.02,238.27 L 719.61,236.83 L 716.97,233.69 L 713.27,228.60 L 712.51,227.44 L 711.20,225.35 L 710.56,224.32 L 709.42,222.25 L 708.86,221.19 L 707.77,218.85 L 707.22,217.62 L 706.07,214.70 L 705.48,213.14 L 704.16,209.34 L 703.82,208.32 L 703.08,206.07 L 702.70,204.90 L 701.87,202.33 L 701.45,201.00 L 700.53,198.07 L 700.06,196.55 L 699.03,193.23 L 698.50,191.51 L 697.35,187.74 L 695.46,181.57 L 695.05,180.22 L 694.63,177.89 L 694.56,177.38 L 694.55,176.61 L 694.73,175.96 L 694.81,175.88 L 695.44,175.64 L 695.82,175.51 L 697.00,175.17 L 697.65,174.98 L 699.32,174.55 L 700.20,174.32 L 702.30,173.81 L 703.40,173.54 L 705.86,172.96 L 707.13,172.66 L 709.91,172.03 L 712.75,171.39 L 719.09,170.00 L 725.57,168.59 L 739.26,165.79 L 742.59,165.13 L 748.80,163.94 L 750.30,163.66 L 753.11,163.14 L 757.00,162.46 L 758.86,162.15 L 763.23,161.61 L 765.51,161.36 L 770.53,160.95 L 773.10,160.76 L 778.52,160.49 L 781.26,160.37 L 786.84,160.24 L 789.63,160.19 M 799.18,172.08 L 797.74,172.10 L 794.76,172.16 L 793.06,172.20 L 787.31,172.40 L 784.01,172.58 L 782.59,172.70 L 779.89,172.96 L 778.73,173.13 L 776.52,173.50 L 775.57,173.74 L 773.76,174.24 L 772.96,174.56 L 771.43,175.23 L 770.73,175.63 L 768.09,177.46 L 766.78,178.71 L 764.87,180.97 L 763.80,182.68 L 763.38,183.62 L 762.59,185.56 L 762.31,186.60 L 761.82,188.72 L 761.68,189.84 L 761.48,192.09 L 761.49,193.25 L 761.59,195.58 L 761.76,196.77 L 762.17,199.13 L 762.49,200.31 L 763.21,202.66 L 763.69,203.81 L 764.71,205.74 L 765.60,206.84 L 766.22,207.31 L 767.61,208.22 L 768.57,208.62 L 770.70,209.39 L 772.13,209.75 L 773.62,210.11 L 774.47,210.28 L 776.24,210.63 L 777.24,210.80 L 779.32,211.14 L 780.49,211.32 L 782.92,211.67 L 784.27,211.85 L 787.07,212.22 L 788.61,212.41 L 791.81,212.79 L 793.57,213.00 L 797.20,213.41 L 799.18,213.63 L 803.27,214.08 L 805.50,214.32 L 814.50,215.27 L 818.65,215.67 L 826.71,216.41 L 830.39,216.71 L 837.51,217.24 L 840.72,217.43 L 846.89,217.76 L 849.63,217.85 L 854.86,217.97 L 857.11,217.95 L 861.39,217.86 L 863.17,217.74 L 866.50,217.44 L 867.80,217.22 L 870.17,216.72 L 870.99,216.39 L 873.31,215.23 L 874.69,214.30 L 875.29,213.77 L 876.43,212.66 L 876.90,212.05 L 877.80,210.78 L 878.14,210.10 L 878.77,208.70 L 878.99,207.96 L 879.34,206.45 L 879.42,205.67 L 879.48,204.08 L 879.41,203.26 L 879.18,201.61 L 878.95,200.77 L 878.20,198.92 L 877.44,197.53 L 876.95,196.79 L 874.74,193.71 L 873.40,192.18 L 870.59,189.18 L 869.16,187.94 L 867.74,186.75 L 867.06,186.27 L 865.72,185.37 L 865.11,185.06 L 862.56,183.98 L 860.28,183.17 L 858.89,182.74 L 855.96,181.84 L 854.29,181.38 L 850.82,180.43 L 848.93,179.95 L 845.05,178.98 L 842.99,178.50 L 838.82,177.54 L 836.67,177.08 L 827.91,175.26 L 823.56,174.48 L 819.05,173.69 L 816.40,173.26 L 815.19,173.08 L 810.66,172.49 L 808.51,172.33 L 804.21,172.09 L 801.73,172.08 Z" fill="rgba(128,200,222,1)"/>
<path d="M 592.00,117.59 L 591.66,126.61 L 591.06,132.39 L 590.56,135.29 L 589.41,141.13 L 588.60,144.21 L 587.76,147.32 L 587.27,148.94 L 586.26,152.23 L 585.69,153.96 L 581.55,166.50 L 581.55,214.00 L 581.56,223.48 L 581.58,229.38 L 581.60,232.15 L 581.64,237.56 L 581.67,240.11 L 581.73,245.10 L 581.78,247.46 L 581.88,252.10 L 581.94,254.31 L 582.07,258.66 L 582.15,260.75 L 582.50,268.91 L 582.75,272.81 L 583.29,280.56 L 583.64,284.46 L 584.40,292.34 L 584.87,296.51 L 585.35,300.73 L 585.62,302.93 L 586.18,307.40 L 586.48,309.75 L 587.11,314.54 L 587.45,317.07 L 588.15,322.25 L 588.53,325.00 L 589.92,334.68 L 590.85,340.86 L 591.31,343.82 L 592.25,349.66 L 592.73,352.46 L 593.69,357.98 L 594.18,360.63 L 595.16,365.86 L 595.66,368.37 L 596.68,373.32 L 597.20,375.69 L 599.31,384.96 L 600.44,389.27 L 602.73,397.68 L 603.97,401.62 L 606.49,409.35 L 607.86,413.02 L 610.66,420.24 L 612.18,423.72 L 615.30,430.60 L 616.99,433.98 L 620.35,440.41 L 622.59,444.47 L 623.72,446.38 L 625.99,450.12 L 627.13,451.88 L 629.42,455.33 L 630.58,456.94 L 632.90,460.08 L 634.07,461.55 L 636.43,464.40 L 637.62,465.72 L 640.02,468.29 L 641.24,469.46 L 643.69,471.74 L 644.93,472.78 L 647.44,474.79 L 648.71,475.69 L 651.27,477.42 L 652.58,478.18 L 655.20,479.64 L 656.54,480.27 L 659.24,481.47 L 660.62,481.97 L 663.39,482.91 L 664.81,483.29 L 667.67,483.97 L 669.13,484.22 L 675.06,484.96 L 678.18,484.97 L 686.56,485.28 L 692.18,485.79 L 695.19,486.23 L 698.25,486.70 L 699.86,486.98 L 703.15,487.58 L 704.90,487.94 L 708.48,488.68 L 710.41,489.11 L 714.36,490.01 L 716.50,490.52 L 722.17,491.86 L 725.73,492.67 L 727.27,493.01 L 730.16,493.64 L 731.23,493.86 L 732.23,494.06 L 732.61,494.13 L 733.29,494.26 L 733.50,494.29 L 735.17,494.48 L 736.21,494.54 L 738.42,494.66 L 739.70,494.69 L 742.37,494.73 L 743.85,494.73 L 746.92,494.70 L 748.57,494.67 L 755.48,494.47 L 759.24,494.29 L 766.92,493.88 L 770.84,493.61 L 778.70,493.04 L 782.49,492.70 L 789.95,491.99 L 793.33,491.60 L 796.64,491.20 L 798.17,491.00 L 801.14,490.59 L 802.47,490.38 L 805.04,489.96 L 806.14,489.75 L 808.22,489.32 L 809.05,489.10 L 818.11,486.39 L 823.67,484.32 L 826.24,483.14 L 831.22,480.68 L 833.51,479.30 L 837.95,476.42 L 839.98,474.82 L 843.92,471.50 L 845.71,469.66 L 849.18,465.86 L 850.75,463.78 L 853.79,459.47 L 855.16,457.12 L 857.81,452.27 L 859.01,449.64 L 860.53,446.04 L 861.57,443.37 L 862.09,441.91 L 863.15,438.91 L 863.68,437.30 L 864.75,434.02 L 865.28,432.28 L 867.40,425.12 L 868.44,421.28 L 870.49,413.47 L 871.45,409.44 L 873.34,401.32 L 874.19,397.26 L 875.83,389.18 L 876.53,385.28 L 877.84,377.60 L 878.34,374.02 L 878.82,370.50 L 879.02,368.82 L 879.38,365.54 L 879.51,364.00 L 879.84,360.37 L 880.04,358.30 L 880.14,357.42 L 880.34,355.76 L 880.44,355.06 L 880.64,353.75 L 880.75,353.19 L 881.21,351.25 L 881.50,350.53 L 882.13,349.23 L 882.54,348.64 L 883.18,347.29 L 883.52,346.12 L 883.64,345.45 L 884.00,342.52 L 883.99,340.95 L 883.87,338.39 L 884.03,340.97 L 884.03,341.35 L 884.07,342.35 L 884.09,342.88 L 884.16,344.14 L 884.24,345.47 L 884.50,348.70 L 885.58,359.50 L 885.73,360.79 L 886.01,363.71 L 886.15,365.23 L 886.39,368.56 L 886.52,370.28 L 886.73,373.96 L 886.84,375.84 L 887.03,379.82 L 887.21,383.86 L 887.47,392.59 L 887.59,397.02 L 887.72,406.18 L 887.77,410.77 L 887.77,419.91 L 887.75,424.43 L 887.61,433.09 L 887.56,435.21 L 887.44,439.27 L 887.38,441.26 L 887.22,445.05 L 887.14,446.90 L 886.95,450.35 L 886.62,455.10 L 886.21,460.15 L 885.13,470.61 L 884.55,475.89 L 883.17,486.62 L 882.45,492.00 L 880.80,502.80 L 879.95,508.19 L 878.07,518.85 L 877.11,524.14 L 875.05,534.46 L 873.99,539.55 L 871.78,549.31 L 870.65,554.10 L 868.32,563.09 L 864.74,575.50 L 864.24,577.10 L 863.55,580.03 L 863.40,580.80 L 863.16,582.52 L 863.05,583.42 L 862.87,585.55 L 862.80,586.69 L 862.68,589.42 L 862.63,590.89 L 862.56,594.43 L 862.54,595.37 L 862.52,597.44 L 862.50,598.51 L 862.48,600.85 L 862.47,602.06 L 862.46,604.69 L 862.44,609.00 L 862.42,611.61 L 862.40,616.35 L 862.38,618.65 L 862.32,622.79 L 862.28,624.78 L 862.15,628.37 L 862.07,630.10 L 861.83,633.17 L 861.69,634.65 L 861.31,637.26 L 861.10,638.51 L 860.55,640.70 L 860.25,641.75 L 859.49,643.57 L 859.08,644.43 L 858.08,645.92 L 857.54,646.63 L 856.27,647.83 L 855.59,648.41 L 854.00,649.37 L 853.16,649.83 L 851.23,650.60 L 850.22,650.97 L 847.90,651.60 L 846.70,651.90 L 843.97,652.42 L 842.55,652.68 L 839.38,653.15 L 837.73,653.38 L 834.08,653.83 L 828.02,654.56 L 826.20,654.77 L 822.74,655.12 L 821.05,655.28 L 817.83,655.51 L 814.67,655.71 L 809.04,655.77 L 806.32,655.74 L 801.52,655.32 L 799.22,655.05 L 795.17,654.12 L 793.24,653.59 L 789.89,652.15 L 788.30,651.35 L 785.56,649.36 L 784.27,648.30 L 782.08,645.74 L 779.33,641.26 L 778.64,639.86 L 777.73,637.68 L 777.33,636.60 L 776.88,634.11 L 776.79,633.41 L 776.67,631.74 L 776.62,630.85 L 776.56,628.67 L 776.53,627.50 L 776.51,624.67 L 776.51,619.50 L 776.51,617.57 L 776.58,613.95 L 776.63,612.18 L 776.81,608.86 L 776.92,607.23 L 777.21,604.20 L 777.37,602.71 L 777.79,599.94 L 778.02,598.58 L 778.57,596.06 L 778.86,594.83 L 779.56,592.54 L 780.29,590.30 L 782.23,586.46 L 783.28,584.63 L 785.91,581.51 L 787.32,580.03 L 790.72,577.49 L 792.53,576.28 L 796.77,574.21 L 804.18,571.46 L 804.99,571.20 L 806.73,570.49 L 807.62,570.10 L 809.50,569.12 L 811.41,568.08 L 815.50,565.32 L 817.57,563.85 L 821.79,560.35 L 828.00,554.46 L 833.50,548.76 L 827.50,549.31 L 827.09,549.34 L 826.04,549.44 L 825.48,549.49 L 824.18,549.61 L 822.83,549.74 L 819.59,550.04 L 809.00,551.04 L 808.01,551.14 L 805.77,551.30 L 804.60,551.38 L 802.03,551.51 L 800.70,551.57 L 797.83,551.67 L 796.36,551.72 L 793.22,551.78 L 790.01,551.84 L 782.92,551.85 L 771.50,551.71 L 768.83,551.66 L 764.16,551.54 L 761.92,551.48 L 757.99,551.34 L 756.11,551.27 L 752.74,551.10 L 751.10,551.00 L 748.11,550.78 L 745.18,550.54 L 739.67,549.85 L 738.27,549.66 L 735.31,549.20 L 730.50,548.38 L 727.86,547.92 L 722.76,547.15 L 720.24,546.80 L 715.42,546.25 L 713.06,546.00 L 708.59,545.66 L 706.41,545.52 L 702.37,545.40 L 700.40,545.37 L 696.84,545.47 L 695.13,545.55 L 692.12,545.87 L 690.70,546.06 L 688.31,546.59 L 685.50,547.65 L 684.30,548.30 L 682.21,549.71 L 681.22,550.44 L 679.53,552.01 L 678.74,552.82 L 677.48,554.54 L 676.08,557.27 L 675.96,557.60 L 675.71,558.50 L 675.59,559.00 L 675.34,560.23 L 675.21,560.89 L 674.97,562.42 L 674.84,563.22 L 674.60,565.03 L 674.35,566.91 L 673.87,571.39 L 673.64,573.73 L 673.20,578.99 L 672.98,581.71 L 672.59,587.57 L 672.40,590.55 L 672.08,596.81 L 671.42,616.13 L 671.37,618.78 L 671.26,623.37 L 671.21,625.56 L 671.09,629.33 L 671.03,631.13 L 670.90,634.20 L 670.82,635.66 L 670.66,638.15 L 670.57,639.34 L 670.36,641.37 L 670.26,642.34 L 670.00,644.03 L 669.02,648.43 L 668.53,650.13 L 667.22,653.43 L 666.51,655.07 L 664.78,658.20 L 663.87,659.73 L 661.76,662.65 L 660.67,664.07 L 658.24,666.72 L 656.99,668.00 L 654.27,670.34 L 652.88,671.47 L 649.92,673.46 L 648.42,674.40 L 645.26,676.00 L 640.34,677.89 L 639.60,678.12 L 637.77,678.60 L 636.82,678.84 L 634.68,679.32 L 632.49,679.80 L 627.80,680.66 L 626.65,680.86 L 624.46,681.20 L 623.39,681.36 L 621.48,681.60 L 620.57,681.71 L 619.09,681.83 L 617.50,681.84 L 617.36,681.82 L 616.60,681.74 L 616.15,681.69 L 614.88,681.54 L 614.20,681.46 L 612.60,681.27 L 611.77,681.18 L 610.00,680.97 L 608.89,680.83 L 606.42,680.43 L 605.15,680.20 L 602.44,679.63 L 599.69,679.02 L 593.88,677.43 L 590.99,676.59 L 585.45,674.69 L 584.12,674.21 L 581.65,673.22 L 578.30,671.75 L 576.98,671.12 L 574.93,670.01 L 573.99,669.47 L 572.56,668.45 L 571.91,667.93 L 570.94,666.85 L 569.80,665.00 L 569.71,664.80 L 569.48,664.02 L 569.36,663.56 L 569.08,662.30 L 568.94,661.61 L 568.63,659.91 L 568.47,659.02 L 568.13,656.94 L 567.95,655.86 L 567.59,653.45 L 567.40,652.21 L 567.01,649.51 L 566.62,646.75 L 565.81,640.59 L 565.40,637.43 L 564.59,630.75 L 564.19,627.38 L 563.43,620.57 L 563.07,617.18 L 562.41,610.62 L 561.60,601.50 L 561.17,596.02 L 560.36,585.56 L 559.96,580.40 L 559.23,570.52 L 558.87,565.65 L 558.22,556.25 L 557.90,551.61 L 557.32,542.60 L 556.75,533.67 L 555.82,516.54 L 555.39,508.03 L 554.69,491.15 L 554.38,482.66 L 553.90,465.24 L 553.79,460.81 L 553.61,451.72 L 553.52,447.12 L 553.38,437.62 L 553.32,432.81 L 553.22,422.80 L 553.17,417.72 L 553.11,407.10 L 553.08,401.71 L 553.04,390.39 L 553.02,372.50 L 553.02,367.24 L 553.04,357.40 L 553.05,352.58 L 553.09,343.57 L 553.11,339.16 L 553.17,330.89 L 553.21,326.85 L 553.31,319.27 L 553.36,315.55 L 553.49,308.57 L 553.57,305.14 L 553.74,298.68 L 553.83,295.51 L 554.04,289.50 L 554.15,286.54 L 554.42,280.90 L 554.55,278.12 L 554.86,272.77 L 555.02,270.13 L 555.39,265.00 L 555.77,259.92 L 556.70,250.08 L 557.20,245.16 L 558.40,235.20 L 560.52,219.46 L 560.92,216.70 L 561.71,211.40 L 562.11,208.78 L 562.92,203.74 L 563.74,198.77 L 565.43,189.55 L 566.29,185.04 L 568.12,176.63 L 569.05,172.50 L 571.05,164.72 L 572.08,160.89 L 574.30,153.56 L 575.45,149.95 L 577.94,142.92 L 579.22,139.42 L 582.02,132.51 L 586.63,122.10 L 587.23,120.81 L 588.32,118.37 L 588.85,117.19 L 589.71,115.14 L 590.11,114.19 L 590.65,112.77 L 591.00,111.60 L 591.00,111.50 L 591.16,111.14 L 591.26,110.93 L 591.61,110.38 L 592.00,109.79 M 517.86,285.29 L 517.81,285.90 L 517.73,287.46 L 517.69,288.30 L 517.62,290.30 L 517.59,291.36 L 517.52,293.81 L 517.49,295.10 L 517.43,298.02 L 517.41,299.53 L 517.36,302.92 L 517.34,304.67 L 517.30,308.54 L 517.28,310.53 L 517.25,314.88 L 517.23,317.11 L 517.21,321.96 L 517.20,324.44 L 517.18,329.79 L 517.17,332.53 L 517.17,338.39 L 517.16,341.38 L 517.16,347.76 L 517.17,351.01 L 517.17,357.92 L 517.18,361.44 L 517.19,368.88 L 517.20,372.67 L 517.23,380.66 L 517.27,393.26 L 517.29,398.58 L 517.33,408.44 L 517.35,413.25 L 517.40,422.12 L 517.42,426.44 L 517.46,434.39 L 517.48,438.25 L 517.53,445.34 L 517.55,448.78 L 517.61,455.06 L 517.63,458.10 L 517.69,463.64 L 517.72,466.32 L 517.78,471.18 L 517.81,473.53 L 517.89,477.77 L 517.92,479.82 L 518.00,483.50 L 518.04,485.27 L 518.13,488.45 L 518.18,489.98 L 518.28,492.72 L 518.33,494.05 L 518.44,496.41 L 518.50,497.55 L 518.62,499.60 L 518.69,500.59 L 518.83,502.38 L 519.30,507.10 L 519.58,509.44 L 519.97,513.63 L 520.14,515.65 L 520.29,519.26 L 520.33,521.00 L 520.22,524.09 L 520.13,525.58 L 519.75,528.23 L 519.53,529.51 L 518.87,531.79 L 518.51,532.88 L 517.56,534.86 L 517.04,535.81 L 515.79,537.55 L 513.55,539.97 L 513.00,540.48 L 511.94,541.23 L 511.40,541.56 L 510.14,542.02 L 509.45,542.21 L 507.70,542.45 L 504.20,542.67 L 502.36,542.73 L 498.49,542.58 L 497.58,542.53 L 495.99,542.37 L 495.26,542.28 L 494.17,542.06 L 493.72,541.94 L 492.39,541.48 L 491.67,541.22 L 489.98,540.53 L 484.57,538.04 L 483.02,537.25 L 480.15,535.59 L 478.75,534.74 L 476.16,532.91 L 474.90,531.97 L 472.59,529.93 L 471.47,528.87 L 469.41,526.56 L 468.42,525.37 L 466.61,522.74 L 465.74,521.38 L 464.16,518.39 L 463.40,516.84 L 462.05,513.43 L 461.39,511.67 L 460.24,507.79 L 459.69,505.78 L 458.72,501.39 L 458.27,499.12 L 457.48,494.15 L 457.11,491.59 L 456.48,486.01 L 456.19,483.13 L 455.71,476.88 L 455.49,473.66 L 455.15,466.69 L 455.00,463.11 L 454.78,455.36 L 454.68,451.39 L 454.57,442.83 L 454.50,429.00 L 454.50,423.57 L 454.60,412.36 L 454.63,409.58 L 454.71,404.13 L 454.75,401.43 L 454.86,396.26 L 454.92,393.72 L 455.04,388.98 L 455.11,386.68 L 455.25,382.52 L 455.33,380.53 L 455.48,377.12 L 455.73,373.00 L 455.81,371.87 L 456.01,369.17 L 456.11,367.75 L 456.33,364.58 L 456.44,362.95 L 456.68,359.42 L 456.81,357.62 L 457.06,353.86 L 457.31,350.05 L 457.82,342.20 L 458.52,331.00 L 458.65,328.87 L 458.91,324.96 L 459.04,323.06 L 459.30,319.63 L 459.43,317.97 L 459.68,315.01 L 459.80,313.59 L 460.05,311.10 L 460.18,309.92 L 460.42,307.90 L 460.55,306.95 L 460.79,305.40 L 460.91,304.68 L 461.15,303.60 L 461.51,302.50 L 461.61,302.29 L 461.84,301.65 L 461.96,301.30 L 462.22,300.38 L 462.48,299.41 L 463.08,296.84 L 463.38,295.48 L 463.99,292.36 L 464.28,290.74 L 464.11,291.76 L 463.71,294.42 L 463.56,295.51 L 463.31,297.53 L 463.24,298.35 L 463.13,299.86 L 463.14,300.46 L 463.18,301.57 L 463.26,302.01 L 463.46,302.83 L 463.61,303.17 L 464.38,304.38 L 465.00,305.00 L 466.14,306.08 L 466.65,306.39 L 467.69,306.85 L 468.30,306.85 L 469.61,306.69 L 470.51,306.38 L 471.45,306.03 L 472.00,305.80 L 473.17,305.29 L 473.85,304.98 L 477.05,303.68 L 479.48,302.82 L 480.81,302.40 L 486.39,300.77 L 489.40,300.05 L 495.48,298.72 L 498.44,298.23 L 501.36,297.77 L 502.76,297.59 L 505.48,297.29 L 506.74,297.20 L 516.50,296.50 L 517.69,286.50 L 517.93,284.33 M 883.07,334.40 L 883.41,335.19 L 883.80,337.23 L 883.83,337.73 L 883.59,336.45 L 883.30,335.14 L 883.11,334.59 L 882.91,334.10 M 863.27,334.35 L 862.31,334.68 L 863.89,334.13 L 865.31,333.69 M 881.72,332.46 L 882.29,332.96 L 882.41,333.19 L 881.69,332.43 M 870.12,332.27 L 868.03,332.85 L 869.67,332.36 L 870.46,332.18 M 874.41,331.32 L 873.41,331.51 L 872.51,331.70 L 872.81,331.63 L 874.28,331.33 L 874.53,331.30 M 878.06,331.10 L 877.45,331.08 L 877.84,331.06 M 519.19,257.09 L 519.36,257.49 L 519.60,258.58 L 519.71,259.17 L 519.82,260.68 L 519.86,261.49 L 519.85,263.48 L 519.83,264.55 L 519.68,267.10 L 519.59,268.44 L 519.32,271.61 L 519.17,273.28 L 518.76,277.14 L 518.56,278.88 L 519.00,274.76 L 519.17,272.91 L 519.49,269.40 L 519.59,267.92 L 519.76,265.12 L 519.80,263.96 L 519.83,261.80 L 519.80,260.92 L 519.70,259.31 L 519.60,258.68 L 519.37,257.54 L 519.20,257.12 L 518.97,256.65 M 469.89,269.23 L 470.00,268.98 L 470.08,268.85 M 471.67,266.37 L 472.36,265.28 L 472.65,264.95 M 487.06,253.41 L 482.06,255.90 L 478.78,258.26 L 477.24,259.72 L 476.41,260.58 L 476.89,260.01 L 478.48,258.43 L 481.79,256.00 L 487.06,253.41 L 488.30,252.99 L 488.30,252.99 M 509.40,252.31 L 510.79,252.57 L 513.30,253.25 L 514.48,253.61 L 516.44,254.52 L 518.59,256.10 L 518.60,256.11 L 516.45,254.52 L 514.49,253.62 L 513.30,253.25 L 510.80,252.57 L 509.40,252.31 L 507.38,252.00 M 506.51,251.87 L 506.51,251.87 L 506.49,251.86 M 611.90,88.27 L 608.43,91.40 L 608.74,91.09 L 611.51,88.50 L 612.29,87.81 L 614.00,86.46 M 614.09,86.38 L 614.40,86.14 L 615.51,85.28 L 617.12,84.10 M 619.34,82.49 L 621.99,80.68 L 625.77,78.24 L 619.13,82.64 Z" fill="rgba(140,3,54,1)"/>
<path d="M 669.54,67.95 L 678.00,68.58 L 679.00,68.68 L 681.32,68.86 L 682.53,68.95 L 685.21,69.12 L 687.97,69.29 L 694.13,69.57 L 697.27,69.70 L 703.63,69.87 L 712.56,69.99 L 715.56,69.99 L 721.56,70.10 L 724.54,70.17 L 730.20,70.41 L 732.95,70.54 L 737.86,70.88 L 739.02,70.97 L 741.12,71.17 L 743.91,71.49 L 746.59,71.84 L 751.99,72.87 L 754.69,73.43 L 760.08,74.87 L 762.77,75.64 L 768.12,77.46 L 770.79,78.42 L 776.06,80.63 L 778.68,81.77 L 783.83,84.33 L 786.38,85.65 L 791.37,88.54 L 793.83,90.03 L 798.61,93.24 L 805.50,98.39 L 806.56,99.25 L 808.90,101.26 L 810.10,102.30 L 812.59,104.58 L 815.10,106.89 L 819.93,111.66 L 821.07,112.81 L 823.12,114.96 L 824.09,115.99 L 825.68,117.79 L 826.40,118.63 L 827.38,119.92 L 827.58,120.20 L 827.84,120.65 L 828.00,121.12 L 828.00,121.57 L 827.44,122.98 L 826.09,125.14 L 824.17,127.50 L 784.34,127.53 L 781.59,127.53 L 776.51,127.55 L 774.04,127.55 L 769.47,127.58 L 767.24,127.60 L 763.13,127.64 L 761.12,127.67 L 757.39,127.74 L 755.57,127.78 L 752.16,127.88 L 750.49,127.93 L 747.35,128.07 L 744.26,128.21 L 738.60,128.63 L 735.81,128.87 L 730.39,129.49 L 727.66,129.84 L 721.97,130.72 L 719.05,131.20 L 712.61,132.37 L 710.92,132.68 L 707.33,133.37 L 701.54,134.51 L 698.96,135.02 L 694.41,135.96 L 692.23,136.42 L 688.37,137.29 L 686.52,137.72 L 683.25,138.57 L 681.67,138.99 L 678.86,139.84 L 677.50,140.27 L 675.02,141.17 L 673.81,141.63 L 671.55,142.61 L 665.03,146.05 L 662.84,147.36 L 658.89,150.25 L 657.00,151.75 L 653.63,155.05 L 652.02,156.75 L 649.23,160.46 L 645.68,166.50 L 645.07,167.73 L 644.05,169.95 L 643.56,171.04 L 642.75,173.13 L 642.37,174.18 L 641.74,176.33 L 641.45,177.43 L 640.96,179.84 L 640.73,181.09 L 640.36,183.94 L 640.18,185.44 L 639.88,188.92 L 639.73,190.76 L 639.47,195.07 L 639.41,196.21 L 639.28,198.67 L 639.09,202.68 L 638.83,208.31 L 638.68,219.54 L 638.67,222.32 L 638.74,227.74 L 638.79,230.42 L 638.98,235.58 L 639.08,238.12 L 639.37,242.93 L 639.53,245.28 L 639.93,249.63 L 640.14,251.73 L 640.64,255.53 L 641.50,260.50 L 642.03,263.06 L 643.35,268.28 L 644.05,270.90 L 645.66,276.15 L 646.49,278.76 L 648.34,283.92 L 649.29,286.47 L 651.33,291.42 L 652.36,293.85 L 654.54,298.47 L 655.64,300.72 L 657.90,304.89 L 659.04,306.91 L 661.34,310.51 L 664.78,315.15 L 666.57,317.30 L 670.71,321.44 L 672.87,323.48 L 677.67,327.37 L 680.14,329.27 L 685.52,332.86 L 688.28,334.61 L 694.15,337.86 L 697.15,339.43 L 703.44,342.30 L 706.63,343.68 L 713.26,346.11 L 716.60,347.27 L 723.48,349.24 L 734.00,351.61 L 735.56,351.90 L 739.19,352.37 L 741.07,352.59 L 745.21,352.92 L 747.33,353.07 L 751.84,353.25 L 754.13,353.32 L 758.87,353.36 L 763.64,353.36 L 773.23,352.93 L 775.58,352.78 L 780.11,352.39 L 786.50,351.63 L 787.70,351.45 L 790.36,351.03 L 791.74,350.81 L 794.72,350.30 L 797.77,349.76 L 804.57,348.46 L 808.06,347.78 L 815.42,346.26 L 819.12,345.48 L 826.59,343.85 L 830.30,343.02 L 837.45,341.36 L 840.95,340.54 L 847.34,338.95 L 848.87,338.56 L 851.72,337.81 L 853.10,337.45 L 855.61,336.75 L 856.82,336.41 L 858.94,335.78 L 861.61,334.92 L 863.27,334.35 L 866.21,333.40 L 867.63,332.96 L 870.12,332.27 L 871.32,331.95 L 873.41,331.51 L 874.41,331.32 L 876.12,331.12 L 876.94,331.06 L 878.33,331.11 L 878.98,331.16 L 880.08,331.45 L 880.59,331.63 L 881.43,332.16 L 882.44,333.22 L 882.70,333.58 L 883.11,334.59 L 883.30,335.14 L 883.59,336.45 L 883.84,337.81 L 883.99,340.95 L 884.00,342.52 L 883.64,345.45 L 883.52,346.12 L 883.18,347.29 L 882.54,348.64 L 882.13,349.23 L 881.50,350.53 L 881.21,351.25 L 880.75,353.19 L 880.64,353.75 L 880.44,355.06 L 880.34,355.76 L 880.14,357.42 L 880.04,358.30 L 879.84,360.37 L 879.51,364.00 L 879.38,365.54 L 879.02,368.82 L 878.82,370.50 L 878.34,374.02 L 877.84,377.60 L 876.53,385.28 L 875.83,389.18 L 874.19,397.26 L 873.34,401.32 L 871.45,409.44 L 870.49,413.47 L 868.44,421.28 L 867.40,425.12 L 865.28,432.28 L 864.75,434.02 L 863.68,437.30 L 863.15,438.91 L 862.09,441.91 L 861.57,443.37 L 860.53,446.04 L 859.01,449.64 L 857.81,452.27 L 855.16,457.12 L 853.79,459.47 L 850.75,463.78 L 849.18,465.86 L 845.71,469.66 L 843.92,471.50 L 839.98,474.82 L 837.95,476.42 L 833.51,479.30 L 831.22,480.68 L 826.24,483.14 L 823.67,484.32 L 818.11,486.39 L 809.05,489.10 L 808.22,489.32 L 806.14,489.75 L 805.04,489.96 L 802.47,490.38 L 801.14,490.59 L 798.17,491.00 L 796.64,491.20 L 793.33,491.60 L 789.95,491.99 L 782.49,492.70 L 778.70,493.04 L 770.84,493.61 L 766.92,493.88 L 759.24,494.29 L 755.48,494.47 L 748.57,494.67 L 746.92,494.70 L 743.85,494.73 L 742.37,494.73 L 739.70,494.69 L 738.42,494.66 L 736.21,494.54 L 735.17,494.48 L 733.50,494.29 L 733.29,494.26 L 732.61,494.13 L 732.23,494.06 L 731.23,493.86 L 730.16,493.64 L 727.27,493.01 L 725.73,492.67 L 722.17,491.86 L 716.50,490.52 L 714.36,490.01 L 710.41,489.11 L 708.48,488.68 L 704.90,487.94 L 703.15,487.58 L 699.86,486.98 L 698.25,486.70 L 695.19,486.23 L 692.18,485.79 L 686.56,485.28 L 678.18,484.97 L 675.06,484.96 L 669.13,484.22 L 667.67,483.97 L 664.81,483.29 L 663.39,482.91 L 660.62,481.97 L 659.24,481.47 L 656.54,480.27 L 655.20,479.64 L 652.58,478.18 L 651.27,477.42 L 648.71,475.69 L 647.44,474.79 L 644.93,472.78 L 643.69,471.74 L 641.24,469.46 L 640.02,468.29 L 637.62,465.72 L 636.43,464.40 L 634.07,461.55 L 632.90,460.08 L 630.58,456.94 L 629.42,455.33 L 627.13,451.88 L 625.99,450.12 L 623.72,446.38 L 622.59,444.47 L 620.35,440.41 L 616.99,433.98 L 615.30,430.60 L 612.18,423.72 L 610.66,420.24 L 607.86,413.02 L 606.49,409.35 L 603.97,401.62 L 602.73,397.68 L 600.44,389.27 L 599.31,384.96 L 597.20,375.69 L 596.68,373.32 L 595.66,368.37 L 595.16,365.86 L 594.18,360.63 L 593.69,357.98 L 592.73,352.46 L 592.25,349.66 L 591.31,343.82 L 590.85,340.86 L 589.92,334.68 L 588.53,325.00 L 588.15,322.25 L 587.45,317.07 L 587.11,314.54 L 586.48,309.75 L 586.18,307.40 L 585.62,302.93 L 585.35,300.73 L 584.87,296.51 L 584.40,292.34 L 583.64,284.46 L 583.29,280.56 L 582.75,272.81 L 582.50,268.91 L 582.15,260.75 L 582.07,258.66 L 581.94,254.31 L 581.88,252.10 L 581.78,247.46 L 581.73,245.10 L 581.67,240.11 L 581.64,237.56 L 581.60,232.15 L 581.58,229.38 L 581.56,223.48 L 581.55,214.00 L 581.55,166.50 L 585.69,153.96 L 586.26,152.23 L 587.27,148.94 L 587.76,147.32 L 588.60,144.21 L 589.41,141.13 L 590.56,135.29 L 591.06,132.39 L 591.66,126.61 L 592.00,117.59 L 592.00,109.33 L 598.92,101.41 L 601.21,98.78 L 605.53,94.25 L 607.67,92.08 L 611.90,88.27 L 614.04,86.43 L 618.49,83.06 L 625.77,78.24 L 627.72,77.04 L 631.52,74.98 L 633.41,74.00 L 637.16,72.36 L 639.04,71.59 L 642.87,70.36 L 644.79,69.80 L 648.79,68.95 L 650.82,68.58 L 655.10,68.10 L 657.29,67.91 L 661.97,67.78 L 664.36,67.75 M 501.89,251.54 L 504.99,251.74 L 506.52,251.87 L 509.40,252.31 L 510.80,252.57 L 513.30,253.25 L 514.49,253.62 L 516.45,254.52 L 518.60,256.11 L 518.83,256.37 L 519.20,257.12 L 519.37,257.54 L 519.60,258.68 L 519.70,259.31 L 519.80,260.92 L 519.83,261.80 L 519.80,263.96 L 519.76,265.12 L 519.59,267.92 L 519.49,269.40 L 519.17,272.91 L 519.00,274.76 L 518.54,279.07 L 517.69,286.50 L 516.50,296.50 L 506.74,297.20 L 505.48,297.29 L 502.76,297.59 L 501.36,297.77 L 498.44,298.23 L 495.48,298.72 L 489.40,300.05 L 486.39,300.77 L 480.81,302.40 L 479.48,302.82 L 477.05,303.68 L 473.85,304.98 L 473.17,305.29 L 472.00,305.80 L 471.45,306.03 L 470.51,306.38 L 469.61,306.69 L 468.30,306.85 L 467.69,306.85 L 466.65,306.39 L 466.14,306.08 L 465.00,305.00 L 464.38,304.38 L 463.61,303.17 L 463.46,302.83 L 463.26,302.01 L 463.18,301.57 L 463.14,300.46 L 463.13,299.86 L 463.24,298.35 L 463.31,297.53 L 463.56,295.51 L 463.71,294.42 L 464.11,291.76 L 464.89,286.94 L 465.20,285.05 L 465.88,281.60 L 466.22,279.93 L 466.98,276.97 L 467.36,275.55 L 468.18,273.11 L 469.47,270.06 L 470.44,268.15 L 472.92,264.55 L 474.24,262.81 L 477.24,259.72 L 478.78,258.26 L 482.06,255.90 L 487.06,253.41 L 488.30,252.99 L 491.10,252.36 L 492.54,252.08 L 495.60,251.74 L 497.15,251.60 L 500.31,251.54 Z" fill="rgba(223,15,0,1)"/>
<path d="M 805.50,214.32 L 803.27,214.08 L 799.18,213.63 L 797.20,213.41 L 793.57,213.00 L 791.81,212.79 L 788.61,212.41 L 787.07,212.22 L 784.27,211.85 L 782.92,211.67 L 780.49,211.32 L 779.32,211.14 L 777.24,210.80 L 776.24,210.63 L 774.47,210.28 L 773.62,210.11 L 772.13,209.75 L 770.70,209.39 L 768.57,208.62 L 767.61,208.22 L 766.22,207.31 L 765.60,206.84 L 764.71,205.74 L 763.69,203.81 L 763.21,202.66 L 762.49,200.31 L 762.17,199.13 L 761.76,196.77 L 761.59,195.58 L 761.49,193.25 L 761.48,192.09 L 761.68,189.84 L 761.82,188.72 L 762.31,186.60 L 762.59,185.56 L 763.38,183.62 L 763.80,182.68 L 764.87,180.97 L 766.78,178.71 L 768.09,177.46 L 770.73,175.63 L 771.43,175.23 L 772.96,174.56 L 773.76,174.24 L 775.57,173.74 L 776.52,173.50 L 778.73,173.13 L 779.89,172.96 L 782.59,172.70 L 784.01,172.58 L 787.31,172.40 L 793.06,172.20 L 794.76,172.16 L 797.74,172.10 L 799.18,172.08 L 801.73,172.08 L 804.21,172.09 L 808.51,172.33 L 810.66,172.49 L 815.19,173.08 L 816.40,173.26 L 819.05,173.69 L 823.56,174.48 L 827.91,175.26 L 836.67,177.08 L 838.82,177.54 L 842.99,178.50 L 845.05,178.98 L 848.93,179.95 L 850.82,180.43 L 854.29,181.38 L 855.96,181.84 L 858.89,182.74 L 860.28,183.17 L 862.56,183.98 L 865.11,185.06 L 865.72,185.37 L 867.06,186.27 L 867.74,186.75 L 869.16,187.94 L 870.59,189.18 L 873.40,192.18 L 874.74,193.71 L 876.95,196.79 L 877.44,197.53 L 878.20,198.92 L 878.95,200.77 L 879.18,201.61 L 879.41,203.26 L 879.48,204.08 L 879.42,205.67 L 879.34,206.45 L 878.99,207.96 L 878.77,208.70 L 878.14,210.10 L 877.80,210.78 L 876.90,212.05 L 876.43,212.66 L 875.29,213.77 L 874.69,214.30 L 873.31,215.23 L 870.99,216.39 L 870.17,216.72 L 867.80,217.22 L 866.50,217.44 L 863.17,217.74 L 861.39,217.86 L 857.11,217.95 L 854.86,217.97 L 849.63,217.85 L 846.89,217.76 L 840.72,217.43 L 837.51,217.24 L 830.39,216.71 L 826.71,216.41 L 818.65,215.67 L 814.50,215.27 Z" fill="rgba(245,251,253,1)"/>
</g>
</svg>